<svg width="20" height="20" viewBox="0 0 20 20" fill="none" xmlns="http://www.w3.org/2000/svg">
<path d="M8.19436 0.665035C8.69797 0.235701 9.33808 -0.00012207 9.99986 -0.00012207C10.6616 -0.00012207 11.3018 0.235701 11.8054 0.665035L12.6434 1.37803C13.0894 1.75803 13.6434 1.98803 14.2274 2.03503L15.3254 2.12204C15.9847 2.17485 16.6038 2.46081 17.0714 2.92866C17.5391 3.3965 17.8248 4.01563 17.8774 4.67503L17.9654 5.77203C18.0124 6.35703 18.2414 6.91004 18.6214 7.35704L19.3354 8.19404C19.7648 8.69739 20.0007 9.33737 20.0007 9.99903C20.0007 10.6607 19.7648 11.3007 19.3354 11.804L18.6214 12.642C18.2414 13.089 18.0114 13.642 17.9654 14.227L17.8774 15.324C17.8248 15.9834 17.5391 16.6026 17.0714 17.0704C16.6038 17.5383 15.9847 17.8242 15.3254 17.877L14.2274 17.964C13.6436 18.0112 13.0895 18.2407 12.6434 18.62L11.8054 19.334C11.302 19.7635 10.662 19.9994 10.0004 19.9994C9.3387 19.9994 8.69872 19.7635 8.19536 19.334L7.35736 18.62C6.91136 18.24 6.35736 18.01 5.77336 17.964L4.67636 17.877C4.01676 17.8243 3.39749 17.5384 2.9295 17.0706C2.46151 16.6028 2.17538 15.9836 2.12236 15.324L2.03536 14.227C1.9891 13.6428 1.75952 13.0881 1.37936 12.642L0.665359 11.804C0.23591 11.3007 0 10.6607 0 9.99903C0 9.33737 0.23591 8.69739 0.665359 8.19404L1.37936 7.35704C1.75936 6.91004 1.98936 6.35703 2.03536 5.77203L2.12236 4.67503C2.17557 4.01552 2.46177 3.39648 2.92972 2.92871C3.39767 2.46094 4.01683 2.17499 4.67636 2.12204L5.77336 2.03503C6.35724 1.98775 6.91142 1.75789 7.35736 1.37803L8.19436 0.665035ZM13.7654 6.23503C13.6913 6.16059 13.6033 6.10152 13.5063 6.06122C13.4093 6.02091 13.3054 6.00016 13.2004 6.00016C13.0954 6.00016 12.9914 6.02091 12.8944 6.06122C12.7975 6.10152 12.7094 6.16059 12.6354 6.23503L6.23536 12.635C6.16092 12.7091 6.10185 12.7971 6.06154 12.8941C6.02123 12.9911 6.00048 13.095 6.00048 13.2C6.00048 13.305 6.02123 13.409 6.06154 13.506C6.10185 13.6029 6.16092 13.691 6.23536 13.765C6.30944 13.8396 6.39751 13.8987 6.49452 13.9391C6.59153 13.9796 6.69556 14.0004 6.80065 14.0005C6.90574 14.0006 7.00981 13.9799 7.10689 13.9397C7.20397 13.8995 7.29215 13.8404 7.36636 13.766L13.7664 7.36603C13.9163 7.21602 14.0005 7.01262 14.0005 6.80053C14.0005 6.58845 13.9163 6.38505 13.7664 6.23503H13.7654ZM12.5714 11.143C12.3807 11.138 12.191 11.1712 12.0134 11.2406C11.8358 11.3101 11.6739 11.4145 11.5373 11.5475C11.4007 11.6806 11.2921 11.8396 11.2179 12.0153C11.1438 12.1911 11.1056 12.3798 11.1056 12.5705C11.1056 12.7612 11.1438 12.95 11.2179 13.1257C11.2921 13.3014 11.4007 13.4605 11.5373 13.5936C11.6739 13.7266 11.8358 13.831 12.0134 13.9004C12.191 13.9699 12.3807 14.0031 12.5714 13.998C12.9434 13.9882 13.2969 13.8335 13.5566 13.5668C13.8163 13.3002 13.9616 12.9427 13.9616 12.5705C13.9616 12.1983 13.8163 11.8409 13.5566 11.5742C13.2969 11.3076 12.9434 11.1529 12.5714 11.143ZM7.43036 6.00003C7.05136 5.99977 6.68779 6.15007 6.41961 6.41787C6.15143 6.68567 6.00062 7.04904 6.00036 7.42804C6.00009 7.80703 6.15039 8.17061 6.4182 8.43878C6.686 8.70696 7.04937 8.85777 7.42836 8.85804C7.80735 8.8583 8.17093 8.708 8.43911 8.4402C8.70728 8.1724 8.85809 7.80903 8.85836 7.43004C8.85862 7.05104 8.70832 6.68746 8.44052 6.41929C8.17272 6.15111 7.80935 6.0003 7.43036 6.00003Z" fill="#03AC0E"/>
</svg>
