<svg width="58" height="17" viewBox="0 0 58 17" fill="none" xmlns="http://www.w3.org/2000/svg">
<path d="M4.05627 12.9062C4.87088 12.9062 5.53125 13.5666 5.53125 14.3812C5.53125 15.1958 4.87088 15.8562 4.05627 15.8562C3.24167 15.8562 2.5813 15.1958 2.5813 14.3812C2.5813 13.5666 3.24167 12.9062 4.05627 12.9062ZM4.05627 15.1187C4.4636 15.1187 4.79376 14.7885 4.79376 14.3812C4.79376 13.9739 4.4636 13.6437 4.05627 13.6437C3.64895 13.6437 3.31879 13.9739 3.31879 14.3812C3.31879 14.7885 3.64895 15.1187 4.05627 15.1187Z" fill="#008C8C"/>
<path d="M19.5446 12.9062C20.3592 12.9062 21.0195 13.5666 21.0195 14.3812C21.0195 15.1958 20.3592 15.8562 19.5446 15.8562C18.73 15.8562 18.0696 15.1958 18.0696 14.3812C18.0696 13.5666 18.73 12.9062 19.5446 12.9062ZM19.5446 15.1187C19.9519 15.1187 20.282 14.7885 20.282 14.3812C20.282 13.9739 19.9519 13.6437 19.5446 13.6437C19.1372 13.6437 18.8071 13.9739 18.8071 14.3812C18.8071 14.7885 19.1372 15.1187 19.5446 15.1187Z" fill="#008C8C"/>
<path d="M0.368744 8.84985H0.737488V0.368744C0.737488 0.165105 0.902594 0 1.10623 0H9.95609C10.1597 0 10.3248 0.165105 10.3248 0.368744V4.05618H14.7498C14.9534 4.05618 15.1185 4.22129 15.1185 4.42493V8.84985H15.4872V4.79367C15.4872 4.59003 15.6523 4.42493 15.856 4.42493H19.9122C20.061 4.42493 20.1952 4.51435 20.2525 4.6517L22.014 8.87567C22.9212 9.00279 23.5969 9.77752 23.5996 10.6936V14.381C23.5996 14.5847 23.4345 14.7498 23.2309 14.7498H22.0951C21.8927 16.159 20.5862 17.1374 19.1769 16.935C18.0443 16.7723 17.1544 15.8824 16.9917 14.7498H6.60789C6.4055 16.159 5.09899 17.1374 3.6897 16.935C2.55701 16.7723 1.66714 15.8824 1.50448 14.7498H0.368744C0.165106 14.7498 0 14.5847 0 14.381V9.2186C0 9.01491 0.165106 8.84985 0.368744 8.84985ZM19.5434 16.2247C20.5617 16.2247 21.3871 15.3993 21.3871 14.381C21.3871 13.3628 20.5617 12.5373 19.5434 12.5373C18.5252 12.5373 17.6997 13.3628 17.6997 14.381C17.7009 15.3987 18.5257 16.2235 19.5434 16.2247ZM16.2247 14.0123H16.9917C17.1941 12.603 18.5006 11.6247 19.9099 11.827C21.0426 11.9897 21.9325 12.8796 22.0951 14.0123H22.8621V10.6936C22.8621 10.0826 22.3669 9.58734 21.7559 9.58734H16.2247V14.0123ZM16.2247 8.84985H21.2028L19.6662 5.16241H16.2247V8.84985ZM6.63739 0.737488H4.42493V4.79367L5.30991 4.12993C5.441 4.03162 5.62132 4.03162 5.75241 4.12993L6.63739 4.79367V0.737488ZM9.58734 0.737488H7.37488V5.53116C7.37488 5.7348 7.20977 5.8999 7.00613 5.8999C6.92635 5.8999 6.84873 5.87404 6.78489 5.82615L5.53116 4.88586L4.27743 5.82615C4.11449 5.94835 3.88338 5.91534 3.76119 5.7524C3.7133 5.68857 3.68744 5.61095 3.68744 5.53116V0.737488H1.47498V8.84985H9.58734V0.737488ZM14.381 4.79367H10.3248V8.84985H14.381V4.79367ZM4.05618 16.2247C5.07442 16.2247 5.8999 15.3993 5.8999 14.381C5.8999 13.3628 5.07442 12.5373 4.05618 12.5373C3.03794 12.5373 2.21246 13.3628 2.21246 14.381C2.21366 15.3987 3.03845 16.2235 4.05618 16.2247ZM0.737488 14.0123H1.50448C1.70687 12.603 3.01337 11.6247 4.42267 11.827C5.55536 11.9897 6.44523 12.8796 6.60789 14.0123H15.4872V9.58734H0.737488V14.0123Z" fill="#008C8C"/>
<path d="M20.238 8.45276C20.193 8.47152 20.1447 8.4812 20.096 8.4812H16.9617C16.758 8.4812 16.5929 8.3161 16.5929 8.11246V5.89999C16.5929 5.69636 16.758 5.53125 16.9617 5.53125H19.1741C19.323 5.53125 19.4572 5.62067 19.5145 5.75803L20.4363 7.97049C20.5147 8.15841 20.4259 8.37436 20.238 8.45276ZM18.9282 6.26874H17.3304V7.74371H19.5429L18.9282 6.26874Z" fill="#008C8C"/>
<path d="M11.0618 5.53125H13.643C13.8466 5.53125 14.0117 5.69636 14.0117 5.89999V7.37497C14.0117 7.57861 13.8466 7.74371 13.643 7.74371H11.0618C10.8581 7.74371 10.693 7.57861 10.693 7.37497V5.89999C10.693 5.69631 10.8581 5.53125 11.0618 5.53125ZM11.4305 7.00623H13.2742V6.26874H11.4305V7.00623Z" fill="#008C8C"/>
<path d="M32.992 2.856C32.9387 3.18133 32.8053 3.45333 32.592 3.672C32.384 3.88533 32.128 4.04 31.824 4.136C32.08 4.18933 32.2853 4.31733 32.44 4.52C32.6 4.72267 32.68 4.96267 32.68 5.24C32.68 5.31467 32.672 5.39733 32.656 5.488C32.5813 5.94133 32.352 6.30667 31.968 6.584C31.5893 6.86133 31.1147 7 30.544 7H28.136L29.128 1.416H31.432C31.9387 1.416 32.328 1.52267 32.6 1.736C32.8773 1.94933 33.016 2.23467 33.016 2.592C33.016 2.67733 33.008 2.76533 32.992 2.856ZM31.824 3.024C31.8293 2.992 31.832 2.944 31.832 2.88C31.832 2.69333 31.7707 2.54933 31.648 2.448C31.5253 2.34667 31.3467 2.296 31.112 2.296H30.096L29.84 3.736H30.864C31.1253 3.736 31.3413 3.67467 31.512 3.552C31.6827 3.424 31.7867 3.248 31.824 3.024ZM31.544 5.352C31.5547 5.27733 31.56 5.224 31.56 5.192C31.56 5 31.4907 4.85067 31.352 4.744C31.2187 4.632 31.032 4.576 30.792 4.576H29.688L29.424 6.112H30.552C30.824 6.112 31.048 6.04533 31.224 5.912C31.4 5.77867 31.5067 5.592 31.544 5.352ZM35.2366 2.288L34.9806 3.736H36.8606L36.7086 4.6H34.8286L34.5646 6.112H36.6846L36.5246 7H33.2766L34.2686 1.408H37.5086L37.3566 2.288H35.2366ZM42.3904 2.856C42.3371 3.18133 42.2038 3.45333 41.9904 3.672C41.7824 3.88533 41.5264 4.04 41.2224 4.136C41.4784 4.18933 41.6838 4.31733 41.8384 4.52C41.9984 4.72267 42.0784 4.96267 42.0784 5.24C42.0784 5.31467 42.0704 5.39733 42.0544 5.488C41.9798 5.94133 41.7504 6.30667 41.3664 6.584C40.9878 6.86133 40.5131 7 39.9424 7H37.5344L38.5264 1.416H40.8304C41.3371 1.416 41.7264 1.52267 41.9984 1.736C42.2758 1.94933 42.4144 2.23467 42.4144 2.592C42.4144 2.67733 42.4064 2.76533 42.3904 2.856ZM41.2224 3.024C41.2278 2.992 41.2304 2.944 41.2304 2.88C41.2304 2.69333 41.1691 2.54933 41.0464 2.448C40.9238 2.34667 40.7451 2.296 40.5104 2.296H39.4944L39.2384 3.736H40.2624C40.5238 3.736 40.7398 3.67467 40.9104 3.552C41.0811 3.424 41.1851 3.248 41.2224 3.024ZM40.9424 5.352C40.9531 5.27733 40.9584 5.224 40.9584 5.192C40.9584 5 40.8891 4.85067 40.7504 4.744C40.6171 4.632 40.4304 4.576 40.1904 4.576H39.0864L38.8224 6.112H39.9504C40.2224 6.112 40.4464 6.04533 40.6224 5.912C40.7984 5.77867 40.9051 5.592 40.9424 5.352ZM46.2911 5.936H44.0591L43.5071 7H42.3311L45.3311 1.408H46.6351L47.6511 7H46.4671L46.2911 5.936ZM46.1471 5.064L45.7471 2.696L44.5151 5.064H46.1471ZM50.5216 7.056C49.9616 7.056 49.5003 6.93067 49.1376 6.68C48.7803 6.424 48.6016 6.06667 48.6016 5.608C48.6016 5.56 48.607 5.488 48.6176 5.392H49.7616C49.7403 5.616 49.799 5.8 49.9376 5.944C50.0816 6.088 50.2896 6.16 50.5616 6.16C50.8336 6.16 51.047 6.104 51.2016 5.992C51.3616 5.87467 51.4416 5.70933 51.4416 5.496C51.4416 5.29867 51.359 5.14133 51.1936 5.024C51.0336 4.90667 50.7803 4.776 50.4336 4.632C50.1136 4.49867 49.8523 4.376 49.6496 4.264C49.4523 4.152 49.2816 3.99733 49.1376 3.8C48.999 3.59733 48.9296 3.344 48.9296 3.04C48.9296 2.69333 49.0176 2.392 49.1936 2.136C49.375 1.88 49.6203 1.68267 49.9296 1.544C50.2443 1.40533 50.6016 1.336 51.0016 1.336C51.3963 1.336 51.7376 1.40267 52.0256 1.536C52.319 1.664 52.5376 1.848 52.6816 2.088C52.831 2.328 52.895 2.608 52.8736 2.928H51.6816L51.6896 2.84C51.6896 2.664 51.623 2.52 51.4896 2.408C51.3616 2.296 51.1803 2.24 50.9456 2.24C50.695 2.24 50.4923 2.29867 50.3376 2.416C50.183 2.53333 50.1056 2.69333 50.1056 2.896C50.1056 3.02933 50.1483 3.14667 50.2336 3.248C50.3243 3.344 50.4336 3.42933 50.5616 3.504C50.6896 3.57333 50.8736 3.664 51.1136 3.776C51.4283 3.91467 51.687 4.04533 51.8896 4.168C52.0923 4.29067 52.2656 4.45333 52.4096 4.656C52.5536 4.85867 52.6256 5.10667 52.6256 5.4C52.6256 5.72 52.5376 6.00533 52.3616 6.256C52.191 6.50667 51.9456 6.704 51.6256 6.848C51.311 6.98667 50.943 7.056 50.5216 7.056ZM30.76 15.056C30.3013 15.056 29.896 14.96 29.544 14.768C29.1973 14.576 28.928 14.3067 28.736 13.96C28.544 13.608 28.448 13.208 28.448 12.76C28.448 12.136 28.592 11.5627 28.88 11.04C29.168 10.5173 29.5627 10.104 30.064 9.8C30.5653 9.496 31.1227 9.344 31.736 9.344C32.1947 9.344 32.5973 9.44 32.944 9.632C33.296 9.824 33.5653 10.096 33.752 10.448C33.944 10.7947 34.04 11.1947 34.04 11.648C34.04 12.272 33.896 12.8453 33.608 13.368C33.3253 13.8853 32.9333 14.296 32.432 14.6C31.9307 14.904 31.3733 15.056 30.76 15.056ZM30.84 14.552C31.3413 14.552 31.792 14.4213 32.192 14.16C32.592 13.8987 32.904 13.5493 33.128 13.112C33.352 12.6693 33.464 12.192 33.464 11.68C33.464 11.1147 33.2987 10.6693 32.968 10.344C32.6427 10.0187 32.2027 9.856 31.648 9.856C31.1467 9.856 30.696 9.98667 30.296 10.248C29.9013 10.5093 29.592 10.8613 29.368 11.304C29.144 11.7413 29.032 12.2133 29.032 12.72C29.032 13.2853 29.1947 13.7333 29.52 14.064C29.8507 14.3893 30.2907 14.552 30.84 14.552ZM38.7607 15H38.2007L35.9367 10.296L35.1047 15H34.5447L35.5287 9.408H36.0887L38.3607 14.104L39.1847 9.408H39.7447L38.7607 15ZM40.2691 12.2C40.3651 11.6507 40.5731 11.16 40.8931 10.728C41.2131 10.2907 41.6051 9.952 42.0691 9.712C42.5331 9.46667 43.0237 9.344 43.5411 9.344C44.1384 9.344 44.6344 9.49333 45.0291 9.792C45.4237 10.0907 45.6771 10.5067 45.7891 11.04H45.1331C45.0371 10.672 44.8424 10.384 44.5491 10.176C44.2557 9.96267 43.8877 9.856 43.4451 9.856C43.0291 9.856 42.6371 9.952 42.2691 10.144C41.9064 10.336 41.5997 10.6107 41.3491 10.968C41.0984 11.32 40.9304 11.7307 40.8451 12.2C40.8131 12.3813 40.7971 12.5573 40.7971 12.728C40.7971 13.1013 40.8717 13.4267 41.0211 13.704C41.1757 13.976 41.3891 14.1867 41.6611 14.336C41.9384 14.48 42.2584 14.552 42.6211 14.552C43.0104 14.552 43.3757 14.4693 43.7171 14.304C44.0584 14.1333 44.3517 13.8907 44.5971 13.576C44.8424 13.2613 45.0157 12.896 45.1171 12.48H42.7651L42.8451 12.032H45.7891L45.7171 12.44C45.5997 12.9307 45.3864 13.376 45.0771 13.776C44.7677 14.1707 44.3917 14.4827 43.9491 14.712C43.5064 14.9413 43.0344 15.056 42.5331 15.056C42.0744 15.056 41.6691 14.9627 41.3171 14.776C40.9704 14.584 40.6984 14.3173 40.5011 13.976C40.3091 13.6293 40.2131 13.2293 40.2131 12.776C40.2131 12.6267 40.2317 12.4347 40.2691 12.2ZM47.8629 12.2L50.0069 15H49.2709L47.3029 12.416L46.8469 15H46.2869L47.2709 9.408H47.8309L47.3669 12.032L50.2629 9.408H50.9749L47.8629 12.2ZM52.3778 9.408L51.3938 15H50.8338L51.8178 9.408H52.3778ZM55.3339 9.408C55.8832 9.408 56.2939 9.52533 56.5659 9.76C56.8432 9.99467 56.9819 10.3093 56.9819 10.704C56.9819 10.7733 56.9712 10.8827 56.9499 11.032C56.8805 11.4373 56.7045 11.784 56.4219 12.072C56.1392 12.3547 55.7632 12.5387 55.2939 12.624L56.3099 15H55.6379L54.6699 12.664H53.6299L53.2219 15H52.6619L53.6459 9.408H55.3339ZM56.3659 11.032C56.3819 10.9253 56.3899 10.8293 56.3899 10.744C56.3899 10.4613 56.2965 10.2427 56.1099 10.088C55.9232 9.93333 55.6352 9.856 55.2459 9.856H54.1259L53.7099 12.216H54.8379C55.2805 12.216 55.6299 12.1093 55.8859 11.896C56.1419 11.6827 56.3019 11.3947 56.3659 11.032Z" fill="#008C8C"/>
</svg>
