<svg width="101" height="76" viewBox="0 0 101 76" fill="none" xmlns="http://www.w3.org/2000/svg">
<path fill-rule="evenodd" clip-rule="evenodd" d="M13.2285 5.31529V12.2039V45.0633C13.2285 46.9129 14.7403 48.4245 16.5846 48.4245H69.8937L83.4617 58.6743L90.2458 63.7964V48.4243H95.6842C97.5284 48.4243 99.0458 46.9125 99.0458 45.0631V5.31529C99.0458 3.4657 97.534 1.9541 95.6842 1.9541H16.5844C14.7403 1.9541 13.2285 3.4659 13.2285 5.31529Z" fill="#008C8C"/>
<path fill-rule="evenodd" clip-rule="evenodd" d="M2.92383 15.5588V55.3125C2.92383 57.1621 4.43562 58.6737 6.28541 58.6737H11.7238V74.0458L32.0705 58.6737H83.4633L69.8953 48.4239H16.586C14.7419 48.4239 13.2299 46.9121 13.2299 45.0627V12.2031H6.28541C4.43562 12.2031 2.92383 13.7149 2.92383 15.5588Z" fill="#008C8C"/>
<path d="M95.6843 0H16.5849C13.657 0 11.2751 2.38433 11.2751 5.31492V10.2498H6.28406C3.35308 10.2498 0.96875 12.6316 0.96875 15.5595V55.3131C0.96875 58.2437 3.35308 60.6281 6.28406 60.6281H9.76873V74.0463C9.76873 74.7875 10.1882 75.4651 10.8519 75.7952C11.1275 75.9324 11.4257 76 11.7223 76C12.1398 76 12.5545 75.8662 12.9002 75.6051L32.7241 60.6281H82.8092L89.0684 65.3555C89.4142 65.6167 89.8288 65.7504 90.2461 65.7504C90.5429 65.7504 90.841 65.6828 91.1167 65.5456C91.7802 65.2152 92.1996 64.5379 92.1996 63.7966V50.3782H95.6843C98.6151 50.3782 101 47.9939 101 45.0631V5.31492C101 2.38433 98.6151 0 95.6843 0ZM97.0921 45.0629C97.0921 45.8259 96.4474 46.4706 95.6843 46.4706H90.2459C89.167 46.4706 88.2922 47.3455 88.2922 48.4243V59.8724L71.0712 46.8654C70.7321 46.6091 70.3185 46.4706 69.8937 46.4706H47.6199C46.541 46.4706 45.6661 47.3455 45.6661 48.4243C45.6661 49.5032 46.541 50.378 47.6199 50.378H69.2386L77.6357 56.7204H32.069C31.6438 56.7204 31.2304 56.8591 30.8913 57.1153L13.6762 70.1214V58.674C13.6762 57.5951 12.8013 56.7202 11.7225 56.7202H6.28406C5.50765 56.7202 4.8762 56.089 4.8762 55.3128V15.5595C4.8762 14.7993 5.52094 14.1573 6.28406 14.1573H11.2751V45.0629C11.2751 47.9937 13.6568 50.378 16.5849 50.378H30.0756C31.1544 50.378 32.0293 49.5032 32.0293 48.4243C32.0293 47.3455 31.1544 46.4706 30.0756 46.4706H16.5849C15.8247 46.4706 15.1825 45.8259 15.1825 45.0629V5.31492C15.1825 4.55199 15.8247 3.90745 16.5849 3.90745H95.6843C96.4607 3.90745 97.0921 4.5387 97.0921 5.31492V45.0629Z" fill="white"/>
<path d="M59.1227 27.4216C59.1043 27.3727 59.0842 27.3249 59.0621 27.2778L53.0259 12.9619C53.0124 12.9298 52.9989 12.9019 52.9854 12.8773C52.7865 12.4619 52.4427 12.1139 51.9849 11.9207C50.9917 11.5014 49.845 11.967 49.4253 12.9615L43.3612 27.3352C43.3579 27.3432 43.3545 27.3511 43.351 27.3591L39.9939 35.3162C39.5747 36.3103 40.0404 37.4561 41.0347 37.8758C41.2826 37.9803 41.5399 38.0299 41.7933 38.0299C42.5551 38.0299 43.2793 37.5812 43.5943 36.835L46.4522 30.0611H55.9948L58.8507 36.8346C59.1655 37.5812 59.8897 38.0299 60.6519 38.0299C60.9051 38.0299 61.1622 37.9803 61.4101 37.876C62.4045 37.4567 62.8707 36.3108 62.4514 35.3166L59.1227 27.4216ZM48.1009 26.1536L51.2251 18.7484L54.3474 26.1536H48.1009Z" fill="white"/>
<path d="M86.0579 31.5501C87.5881 29.316 88.5007 26.5238 88.5007 23.4957C88.5007 16.1919 83.1982 10.25 76.6808 10.25C70.1602 10.25 64.8555 16.1919 64.8555 23.4957C64.8555 30.8028 70.1602 36.7476 76.6808 36.7476C79.1687 36.7476 81.478 35.8794 83.3844 34.4018L87.0543 38.0439C87.4353 38.4222 87.9329 38.6109 88.4305 38.6109C88.9328 38.6109 89.4353 38.4183 89.8173 38.0334C90.5775 37.2675 90.5726 36.0306 89.8067 35.2704L86.0579 31.5501ZM83.2262 28.7397L79.8286 25.3677C79.0628 24.6077 77.8259 24.6122 77.0657 25.3783C76.3055 26.1442 76.3104 27.3811 77.0762 28.1413L80.5818 31.6207C79.4295 32.3953 78.0986 32.8404 76.6806 32.8404C72.3146 32.8404 68.7627 28.6484 68.7627 23.4959C68.7627 18.3468 72.3148 14.1577 76.6806 14.1577C81.0435 14.1577 84.593 18.3466 84.593 23.4959C84.5932 25.4379 84.0885 27.2435 83.2262 28.7397Z" fill="white"/>
<path d="M39.0359 23.96C39.0359 22.8812 38.161 22.0063 37.0822 22.0063H26.5032V15.675H37.082C38.1609 15.675 39.0357 14.8002 39.0357 13.7213C39.0357 12.6425 38.1609 11.7676 37.082 11.7676H24.5494C23.4706 11.7676 22.5957 12.6425 22.5957 13.7213V36.6575C22.5957 37.7363 23.4706 38.6112 24.5494 38.6112C25.6283 38.6112 26.5032 37.7363 26.5032 36.6575V25.9137H37.082C38.161 25.9137 39.0359 25.0389 39.0359 23.96Z" fill="white"/>
<path d="M38.8444 46.4707C37.7655 46.4707 36.8906 47.3456 36.8906 48.4244C36.8906 49.5033 37.7655 50.3782 38.8444 50.3782H38.8498C39.9287 50.3782 40.8006 49.5033 40.8006 48.4244C40.8006 47.3456 39.9232 46.4707 38.8444 46.4707Z" fill="white"/>
</svg>
