<svg width="29" height="24" viewBox="0 0 29 24" fill="none" xmlns="http://www.w3.org/2000/svg">
<path fill-rule="evenodd" clip-rule="evenodd" d="M10 0C4.47715 0 0 4.47715 0 10C0 14.1006 2.46819 17.6248 6 19.1679V23.2929C6 23.7383 6.53857 23.9614 6.85355 23.6464L10.5 20H19C24.5228 20 29 15.5228 29 10C29 4.47715 24.5228 0 19 0H10ZM9.5 5C8.67157 5 8 5.67157 8 6.5C8 7.32843 8.67157 8 9.5 8H20.5C21.3284 8 22 7.32843 22 6.5C22 5.67157 21.3284 5 20.5 5H9.5ZM8 12.5C8 11.6716 8.67157 11 9.5 11H13.5C14.3284 11 15 11.6716 15 12.5C15 13.3284 14.3284 14 13.5 14H9.5C8.67157 14 8 13.3284 8 12.5Z" fill="#008C8C"/>
</svg>
