<svg width="28" height="28" viewBox="0 0 28 28" fill="none" xmlns="http://www.w3.org/2000/svg">
<path fill-rule="evenodd" clip-rule="evenodd" d="M25.9042 0.45232L27.6578 3.94598C27.8733 4.33743 27.9957 4.78609 27.9959 5.26296C27.9959 6.78891 26.7427 8.02594 25.1968 8.02594C23.6509 8.02594 22.3977 6.78891 22.3977 5.26296C22.3977 6.78891 21.1446 8.02594 19.5987 8.02594C18.0528 8.02594 16.7996 6.78891 16.7996 5.26296C16.7996 6.78891 15.5464 8.02594 14.0005 8.02594C12.4546 8.02594 11.2015 6.78891 11.2015 5.26296C11.2015 6.78891 9.94823 8.02594 8.40238 8.02594C6.85647 8.02594 5.60331 6.78891 5.60331 5.26296C5.60331 6.78891 4.35009 8.02594 2.80424 8.02594C1.25833 8.02594 0.00517004 6.78891 0.00517004 5.26296C0.00517004 4.79626 0.329303 3.96304 0.329303 3.96304L2.20476 0.435258C2.34711 0.167398 2.62569 0 2.92904 0H25.1711C25.4813 0 25.7651 0.175055 25.9042 0.45232ZM27.243 26.4226H26.344V9.51665C25.9777 9.61399 25.5931 9.66671 25.1962 9.66671C24.1361 9.66671 23.1614 9.29609 22.3971 8.67883C21.6328 9.29609 20.6581 9.66671 19.598 9.66671C18.5379 9.66671 17.5632 9.29609 16.799 8.67883C16.0347 9.29609 15.06 9.66671 13.9999 9.66671C12.9398 9.66671 11.9651 9.29609 11.2008 8.67883C10.4366 9.29609 9.46187 9.66671 8.40175 9.66671C7.34163 9.66671 6.36694 9.29609 5.60268 8.67883C4.83842 9.29609 3.86373 9.66671 2.80361 9.66671C2.40674 9.66671 2.02218 9.61399 1.65583 9.51665V26.4226H0.756984C0.338898 26.4226 0 26.7615 0 27.1797C0 27.6328 0.367281 28 0.820312 28H27.1797C27.6327 28 28 27.6328 28 27.1797C28 26.7615 27.6611 26.4226 27.243 26.4226ZM17.0834 22.828C15.8602 24.5015 14.6557 25.8212 14.6051 25.8765C14.4497 26.0463 14.2302 26.143 14 26.143C13.7699 26.143 13.5503 26.0463 13.3949 25.8765C13.3442 25.8212 12.1398 24.5015 10.9166 22.828C9.1811 20.4535 8.33738 18.6656 8.33738 17.3624C8.33738 14.2397 10.8776 11.6993 14 11.6993C17.1224 11.6993 19.6626 14.2398 19.6626 17.3624C19.6626 18.6656 18.819 20.4534 17.0834 22.828ZM9.97725 17.3621C9.97725 15.1441 11.7815 13.3397 13.9992 13.3397C16.217 13.3397 18.0212 15.1441 18.0212 17.3621C18.0212 18.8899 15.7574 22.0364 13.9991 24.0846C12.2408 22.0375 9.97725 18.8919 9.97725 17.3621ZM11.6179 17.3621C11.6179 18.6753 12.6861 19.7436 13.9992 19.7436C15.3123 19.7436 16.3806 18.6753 16.3806 17.3621C16.3806 16.0488 15.3123 14.9805 13.9992 14.9805C12.6862 14.9805 11.6179 16.0488 11.6179 17.3621ZM13.2592 17.3617C13.2592 16.9532 13.5915 16.6209 13.9999 16.6209C14.4083 16.6209 14.7406 16.9532 14.7406 17.3617C14.7406 17.7701 14.4083 18.1025 13.9999 18.1025C13.5915 18.1025 13.2592 17.7701 13.2592 17.3617Z" fill="url(#paint0_linear)"/>
<defs>
<linearGradient id="paint0_linear" x1="3.29412" y1="2.88233" x2="29.6468" y2="35.8235" gradientUnits="userSpaceOnUse">
<stop stop-color="#008C8C"/>
<stop offset="0.977531" stop-color="#98FDFD"/>
</linearGradient>
</defs>
</svg>
