<svg width="44" height="44" viewBox="0 0 44 44" fill="none" xmlns="http://www.w3.org/2000/svg">
<g clip-path="url(#clip0)">
<g filter="url(#filter0_d)">
<path d="M22.5 35.5C29.6797 35.5 35.5 29.6797 35.5 22.5C35.5 15.3203 29.6797 9.5 22.5 9.5C15.3203 9.5 9.5 15.3203 9.5 22.5C9.5 29.6797 15.3203 35.5 22.5 35.5Z" fill="black"/>
</g>
<path d="M22.5 36C29.9558 36 36 29.9558 36 22.5C36 15.0442 29.9558 9 22.5 9C15.0442 9 9 15.0442 9 22.5C9 29.9558 15.0442 36 22.5 36Z" fill="#F8F8F8" stroke="#008C8C"/>
<path d="M23.5293 18.9297C23.5293 19.1302 23.4427 19.3171 23.2695 19.4902C23.1009 19.6589 22.9323 19.7432 22.7637 19.7432C22.7272 19.7523 22.6976 19.7568 22.6748 19.7568L22.5244 19.7705C22.2965 19.7705 22.0915 19.6953 21.9092 19.5449C21.7314 19.3945 21.6426 19.2008 21.6426 18.9639V18.8408C21.6426 18.6038 21.736 18.4056 21.9229 18.2461C22.1143 18.082 22.333 18 22.5791 18H22.6133L22.8457 18.0273C22.987 18.0273 23.1328 18.1048 23.2832 18.2598C23.4382 18.4102 23.5156 18.5628 23.5156 18.7178L23.5293 18.7793V18.9297ZM21.3555 21.9785C21.1185 21.8646 21 21.7575 21 21.6572C21 21.557 21.0479 21.4772 21.1436 21.418C21.4762 21.2174 22.0026 21.1172 22.7227 21.1172H22.9209C23.167 21.1172 23.306 21.2311 23.3379 21.459C23.3561 21.582 23.3652 22.4115 23.3652 23.9473C23.3652 25.4785 23.3971 26.3581 23.4609 26.5859C23.5247 26.8092 23.6774 26.9824 23.9189 27.1055C24.1605 27.224 24.2812 27.3447 24.2812 27.4678C24.2812 27.641 23.7161 27.7275 22.5859 27.7275L22.3809 27.7344H21.5469C21.2142 27.7344 21.0479 27.6523 21.0479 27.4883C21.0479 27.3516 21.1481 27.2194 21.3486 27.0918C21.5537 26.9642 21.695 26.8229 21.7725 26.668C21.859 26.4993 21.9023 26.1051 21.9023 25.4854L21.9092 25.2666V25.0547L21.916 24.7334V24.5215L21.9229 24.3096C21.9229 23.2295 21.8864 22.6006 21.8135 22.4229C21.7451 22.2406 21.5924 22.0924 21.3555 21.9785Z" fill="#008C8C"/>
</g>
<defs>
<filter id="filter0_d" x="1.5" y="3.5" width="42" height="42" filterUnits="userSpaceOnUse" color-interpolation-filters="sRGB">
<feFlood flood-opacity="0" result="BackgroundImageFix"/>
<feColorMatrix in="SourceAlpha" type="matrix" values="0 0 0 0 0 0 0 0 0 0 0 0 0 0 0 0 0 0 127 0"/>
<feOffset dy="2"/>
<feGaussianBlur stdDeviation="4"/>
<feColorMatrix type="matrix" values="0 0 0 0 0 0 0 0 0 0 0 0 0 0 0 0 0 0 0.12 0"/>
<feBlend mode="normal" in2="BackgroundImageFix" result="effect1_dropShadow"/>
<feBlend mode="normal" in="SourceGraphic" in2="effect1_dropShadow" result="shape"/>
</filter>
<clipPath id="clip0">
<rect width="44" height="44" fill="white"/>
</clipPath>
</defs>
</svg>
