<svg width="31" height="33" viewBox="0 0 31 33" fill="none" xmlns="http://www.w3.org/2000/svg">
<path fill-rule="evenodd" clip-rule="evenodd" d="M31 15.5C31 25.165 23.165 33 13.5 33C8.06562 33 3.20979 30.5229 0 26.6363V8C0 3.58172 3.58172 0 8 0H21.6317C27.2015 2.92811 31 8.77046 31 15.5ZM15 12C15 11.1716 14.3284 10.5 13.5 10.5C12.6716 10.5 12 11.1716 12 12V24.25C12 25.0784 12.6716 25.75 13.5 25.75C14.3284 25.75 15 25.0784 15 24.25V12ZM12 6.75C12 5.92157 12.6716 5.25 13.5 5.25H13.518C14.3465 5.25 15.018 5.92157 15.018 6.75C15.018 7.57843 14.3465 8.25 13.518 8.25H13.5C12.6716 8.25 12 7.57843 12 6.75Z" fill="#008C8C" fill-opacity="0.2"/>
</svg>
