<svg width="24" height="20" viewBox="0 0 24 20" fill="none" xmlns="http://www.w3.org/2000/svg">
<path fill-rule="evenodd" clip-rule="evenodd" d="M0 8.07655C0 3.616 3.616 0 8.07655 0H15.3454C19.806 0 23.422 3.616 23.422 8.07655C23.422 12.5371 19.806 16.1531 15.3454 16.1531H8.48134L5.70046 18.934C5.38548 19.249 4.84691 19.0259 4.84691 18.5804V15.4815C1.9939 14.2354 0 11.3888 0 8.07655ZM12.5 3.06L12.276 9.822H10.624L10.386 3.06H12.5ZM11.492 13.098C11.1373 13.098 10.8433 12.9907 10.61 12.776C10.386 12.552 10.274 12.2767 10.274 11.95C10.274 11.6233 10.386 11.3527 10.61 11.138C10.8433 10.914 11.1373 10.802 11.492 10.802C11.8373 10.802 12.122 10.914 12.346 11.138C12.57 11.3527 12.682 11.6233 12.682 11.95C12.682 12.2767 12.57 12.552 12.346 12.776C12.122 12.9907 11.8373 13.098 11.492 13.098Z" fill="#008C8C"/>
</svg>
