<svg width="30" height="25" viewBox="0 0 30 25" fill="none" xmlns="http://www.w3.org/2000/svg">
<path fill-rule="evenodd" clip-rule="evenodd" d="M16.5481 0H11C10.7162 0 10.435 0.0107453 10.1566 0.0318511L0 16.0176V25H26.8482C27.4042 24.9942 27.9489 24.8513 28.4281 24.5855C28.9073 24.3196 29.3044 23.9401 29.5797 23.4847C29.8551 23.0293 29.9991 22.5138 29.9976 21.9896C29.996 21.4654 29.8489 20.9507 29.5708 20.4967L16.5481 0ZM14.3654 6.98682C14.3654 6.43453 13.9177 5.98682 13.3654 5.98682C12.8132 5.98682 12.3654 6.43453 12.3654 6.98682V12.9912C12.3654 13.5435 12.8132 13.9912 13.3654 13.9912C13.9177 13.9912 14.3654 13.5435 14.3654 12.9912V6.98682ZM12.3654 18.9956C12.3654 18.4433 12.8132 17.9956 13.3654 17.9956H13.3764C13.9287 17.9956 14.3764 18.4433 14.3764 18.9956C14.3764 19.5479 13.9287 19.9956 13.3764 19.9956H13.3654C12.8132 19.9956 12.3654 19.5479 12.3654 18.9956Z" fill="#FFECAC"/>
</svg>
