<svg width="31" height="33" viewBox="0 0 31 33" fill="none" xmlns="http://www.w3.org/2000/svg">
<path fill-rule="evenodd" clip-rule="evenodd" d="M13.5 33C23.165 33 31 25.165 31 15.5C31 8.77046 27.2015 2.92811 21.6317 0H8C3.58172 0 0 3.58172 0 8V26.6363C3.20979 30.5229 8.06562 33 13.5 33ZM21.5643 8.84995C21.9548 8.45942 21.9548 7.82626 21.5643 7.43573C21.1737 7.04521 20.5406 7.04521 20.1501 7.43573L14 13.5858L7.84995 7.43573C7.45943 7.04521 6.82626 7.04521 6.43574 7.43573C6.04521 7.82626 6.04521 8.45942 6.43574 8.84995L12.5858 15L6.43574 21.15C6.04521 21.5406 6.04521 22.1737 6.43574 22.5643C6.82626 22.9548 7.45943 22.9548 7.84995 22.5643L14 16.4142L20.1501 22.5643C20.5406 22.9548 21.1737 22.9548 21.5643 22.5643C21.9548 22.1737 21.9548 21.5406 21.5643 21.15L15.4142 15L21.5643 8.84995Z" fill="#FFD4DF"/>
</svg>
