<svg width="23" height="38" viewBox="0 0 23 38" fill="none" xmlns="http://www.w3.org/2000/svg">
<path d="M18.5769 0H4.42308C1.98154 0 0 1.93455 0 4.31818V33.6818C0 36.0655 1.98154 38 4.42308 38H18.5769C21.0185 38 23 36.0655 23 33.6818V4.31818C23 1.93455 21.0185 0 18.5769 0ZM11.5 36.2727C10.0315 36.2727 8.84615 35.1155 8.84615 33.6818C8.84615 32.2482 10.0315 31.0909 11.5 31.0909C12.9685 31.0909 14.1538 32.2482 14.1538 33.6818C14.1538 35.1155 12.9685 36.2727 11.5 36.2727ZM19.4615 29.3636H3.53846V5.18182H19.4615V29.3636Z" fill="#008C8C"/>
</svg>
