<svg width="18" height="15" viewBox="0 0 18 15" fill="none" xmlns="http://www.w3.org/2000/svg">
<path fill-rule="evenodd" clip-rule="evenodd" d="M0 6.2069C0 2.77892 2.77892 0 6.20689 0H11.7931C15.2211 0 18 2.77892 18 6.2069C18 9.63487 15.2211 12.4138 11.7931 12.4138H6.5181L4.57836 14.3535C4.26338 14.6685 3.7248 14.4454 3.7248 14V11.8976C1.53229 10.94 0 8.75238 0 6.2069ZM11.3144 2.06791L8.88027 3.55815V7.84969L11.3175 9.2976C11.4972 9.40432 11.7247 9.27489 11.7247 9.06599V2.29766C11.7247 2.08715 11.494 1.95797 11.3144 2.06791ZM6.76525 8.06828L6.74894 8.06729C6.62092 8.05953 6.49745 8.03602 6.38021 7.99911L5.56076 9.41796C5.48569 9.54794 5.53136 9.71419 5.6623 9.78763L6.46891 10.24C6.59759 10.3122 6.7604 10.2675 6.83416 10.1397L8.03053 8.06828H6.76525ZM5.32906 4.77236V6.58211C5.32906 6.68554 5.34021 6.78657 5.36092 6.88432H4.96923C4.68656 6.88432 4.45742 6.65524 4.45742 6.37267V4.9818C4.45742 4.69923 4.68656 4.47016 4.96923 4.47016H5.36106C5.34028 4.56763 5.32906 4.66866 5.32906 4.77236ZM8.34511 7.52863H6.78417C6.27822 7.49795 5.86807 7.08793 5.86807 6.58213V4.77241C5.86807 4.26661 6.27822 3.85661 6.78417 3.8873H8.34511V7.52863ZM12.7226 7.80214C12.7752 7.85475 12.8442 7.88106 12.9132 7.88106C12.9821 7.88106 13.0511 7.85475 13.1037 7.80214C13.209 7.69693 13.209 7.52634 13.1037 7.42114L12.5601 6.87767C12.4548 6.77247 12.2842 6.77247 12.1789 6.87767C12.0737 6.98288 12.0737 7.15347 12.1789 7.25867L12.7226 7.80214ZM12.3701 4.64822C12.3011 4.64822 12.2321 4.62192 12.1795 4.5693C12.0742 4.4641 12.0742 4.29351 12.1795 4.1883L12.7231 3.64482C12.8284 3.53961 12.999 3.53961 13.1043 3.64482C13.2095 3.75002 13.2095 3.92061 13.1043 4.02582L12.5606 4.5693C12.508 4.6219 12.439 4.64822 12.3701 4.64822ZM12.62 5.99374H13.3888C13.5377 5.99374 13.6583 5.87312 13.6583 5.72433C13.6583 5.57555 13.5377 5.45492 13.3888 5.45492H12.62C12.4711 5.45492 12.3505 5.57555 12.3505 5.72433C12.3505 5.87312 12.4711 5.99374 12.62 5.99374Z" fill="#008C8C"/>
</svg>
