<svg width="18" height="18" viewBox="0 0 18 18" fill="none" xmlns="http://www.w3.org/2000/svg">
<path d="M16.0576 11.048L14.0629 13.6564C13.6638 14.1783 13.0443 14.4844 12.3873 14.4844H8.68361C8.39237 14.4844 8.15626 14.2483 8.15626 13.9571C8.15626 13.6659 8.39237 13.4298 8.68361 13.4298H11.8937C12.5836 13.4298 13.1614 12.8651 13.1482 12.1753C13.1355 11.5068 12.5895 10.9688 11.918 10.9688H8.22657C7.16671 9.94974 5.53117 9.83049 4.3347 10.6851L3.9375 10.9688V16.9454H7.45313H8.15626H13.1085C14.1852 16.9454 15.1879 16.3979 15.7701 15.4923L17.8281 12.2909C17.9403 12.1163 18 11.9131 18 11.7056C18 10.6703 16.6864 10.2256 16.0576 11.048V11.048Z" fill="#008C8C"/>
<path d="M2.35547 9.91406H0.527345C0.23611 9.91406 0 10.1502 0 10.4414V17.4727C0 17.7639 0.23611 18 0.527345 18H2.35547C2.64671 18 2.88282 17.7639 2.88282 17.4727V10.4414C2.88282 10.1502 2.64671 9.91406 2.35547 9.91406Z" fill="#008C8C"/>
<path d="M10.0654 2.91504C9.95807 2.9973 9.89894 3.12186 9.87862 3.2299C9.85053 3.37893 9.88607 3.51737 9.96922 3.58255C9.9985 3.60551 10.0308 3.62808 10.0654 3.65026V2.91504Z" fill="#008C8C"/>
<path d="M10.4414 8.78908C12.8646 8.78908 14.836 6.81769 14.836 4.39454C14.836 1.97139 12.8646 0 10.4414 0C8.01827 0 6.04688 1.97139 6.04688 4.39454C6.04688 6.81769 8.01827 8.78908 10.4414 8.78908ZM9.11114 5.83135C9.21738 5.66892 9.43531 5.62322 9.59781 5.7296C9.78768 5.85381 9.90669 5.90767 10.0656 5.93V4.44531C9.84105 4.34241 9.67322 4.24337 9.53551 4.13533C9.24375 3.9065 9.11054 3.50952 9.18785 3.09921C9.27208 2.65209 9.58332 2.29634 10 2.17083C10.0221 2.16419 10.0439 2.15811 10.0656 2.15238V1.9336C10.0656 1.73947 10.223 1.58204 10.4172 1.58204C10.6113 1.58204 10.7687 1.73947 10.7687 1.9336V2.11384C11.1101 2.17294 11.3513 2.34099 11.4682 2.47511C11.5957 2.6215 11.5804 2.84359 11.434 2.9711C11.2884 3.09794 11.0679 3.08353 10.94 2.93928C10.932 2.93116 10.8761 2.87737 10.7687 2.83775V3.97372C10.8311 3.99689 10.8935 4.01935 10.9547 4.04101C11.5727 4.25947 11.9164 4.83154 11.81 5.46452C11.7273 5.95654 11.3529 6.45551 10.7687 6.6037V6.85549C10.7687 7.04962 10.6113 7.20705 10.4172 7.20705C10.223 7.20705 10.0656 7.04962 10.0656 6.85549V6.63745C9.78174 6.61291 9.54644 6.53623 9.21288 6.31802C9.05039 6.2117 9.00486 5.99384 9.11114 5.83135V5.83135Z" fill="#008C8C"/>
<path d="M11.1165 5.34777C11.1396 5.21034 11.149 4.88286 10.7686 4.72266V5.85191C10.9663 5.73864 11.0844 5.53832 11.1165 5.34777Z" fill="#008C8C"/>
</svg>
