<svg width="10" height="18" viewBox="0 0 10 18" fill="none" xmlns="http://www.w3.org/2000/svg">
<path d="M8.52941 0.30957H1.47059C0.647069 0.30957 0 0.953287 0 1.77254V15.817C0 16.6363 0.647069 17.28 1.47059 17.28H8.52941C9.35293 17.28 10 16.6363 10 15.817V1.77254C10 0.953287 9.35293 0.30957 8.52941 0.30957ZM6.64704 0.894752L6.32352 1.21659C6.14704 1.39217 5.91175 1.47993 5.67646 1.47993H4.29409C4.0588 1.47993 3.82351 1.39217 3.67644 1.21659L3.35292 0.894752H6.64704ZM9.41177 15.817C9.41177 16.3145 9.02941 16.6948 8.52941 16.6948H1.47059C1.08823 16.6948 0.764715 16.4608 0.647069 16.1097H9.3646C9.54108 16.1097 9.41177 15.9926 9.41177 15.817C9.41177 15.6415 9.58826 15.5244 9.41177 15.5244H0.588229V1.77254C0.588229 1.27513 0.970587 0.894752 1.47059 0.894752H2.5294L3.2647 1.62624C3.55883 1.91885 3.91177 2.06512 4.32351 2.06512H5.70588C6.08823 2.06512 6.47059 1.91881 6.7353 1.62624L7.4706 0.894752H8.52941C9.02941 0.894752 9.41177 1.27513 9.41177 1.77254V15.817Z" fill="#7B7B7B"/>
</svg>
