<svg width="19" height="21" viewBox="0 0 19 21" fill="none" xmlns="http://www.w3.org/2000/svg">
<path d="M19 15.382V14.1414L17.191 11.8672L19 10.6268V9.58705L17.185 8.13509L19 6.06084V4.80469H0V15.382H19ZM9.98969 7.1552H14.1031V8.33046H9.98969V7.1552ZM9.98969 9.50572H14.1031V10.681H9.98969V9.50572ZM4.89691 13.0204V14.2067H3.72165V13.0315H2.54639V11.8562H4.70103C5.02505 11.8562 5.28866 11.5926 5.28866 11.2686C5.28866 10.9446 5.02505 10.681 4.70103 10.681H4.1134C3.14135 10.681 2.35052 9.89015 2.35052 8.91809C2.35052 8.08072 2.9376 7.37831 3.72165 7.19963V5.97995H4.89691V7.1552H5.87629V8.33046H4.1134C3.78938 8.33046 3.52577 8.59407 3.52577 8.91809C3.52577 9.24211 3.78938 9.50572 4.1134 9.50572H4.70103C5.67309 9.50572 6.46392 10.2965 6.46392 11.2686C6.46392 12.1744 5.7771 12.9225 4.89691 13.0204ZM8.81443 13.0315H7.63917V11.8562H8.81443V13.0315ZM8.81443 10.681H7.63917V9.50572H8.81443V10.681ZM8.81443 8.33046H7.63917V7.1552H8.81443V8.33046ZM9.98969 11.8562H14.1031V13.0315H9.98969V11.8562Z" fill="#7B7B7B"/>
<path d="M11.7526 2.18799C11.7526 1.03863 10.8175 0.103516 9.6681 0.103516H9.38498L9.31552 0.214617L7.97189 2.45403H3.78069L2.42448 0.193031L2.37473 0.103516H2.08448C0.935113 0.103516 0 1.03863 0 2.18799V3.62929H11.7526V2.18799Z" fill="#7B7B7B"/>
<path d="M7.30964 1.27877L8.01487 0.103516H3.74414L4.4493 1.27877H7.30964Z" fill="#7B7B7B"/>
<path d="M0 16.5566V17.9979C0 19.1473 0.935113 20.0824 2.08448 20.0824H9.6681C10.8175 20.0824 11.7526 19.1473 11.7526 17.9979V16.5566H0ZM7.05155 18.9072H4.70103V17.7319H7.05155V18.9072Z" fill="#7B7B7B"/>
</svg>
