<svg width="35" height="35" viewBox="0 0 35 35" fill="none" xmlns="http://www.w3.org/2000/svg">
<path d="M17.5 0C7.85021 0 0 7.85021 0 17.5C0 27.1498 7.85021 35 17.5 35C27.1498 35 35 27.1498 35 17.5C35 7.85021 27.1498 0 17.5 0Z" fill="#008C8C"/>
<path d="M25.0287 24.791H9.96992C9.43763 24.791 8.98263 24.4074 8.89221 23.8824L7.307 14.6468C7.237 14.2429 7.40034 13.8331 7.72846 13.5866C8.05805 13.3387 8.49409 13.2993 8.8645 13.4787L13.0849 15.5335L16.5441 9.31078C16.9291 8.61516 18.071 8.61516 18.456 9.31078L21.9151 15.5335L26.1355 13.4787C26.5045 13.2993 26.942 13.3387 27.2716 13.5866C27.5997 13.8331 27.7616 14.2414 27.693 14.6468L26.1078 23.8824C26.016 24.4074 25.561 24.791 25.0287 24.791Z" fill="#F5DF59"/>
<path d="M17.4988 8.79102C17.1167 8.79102 16.7361 8.96456 16.5436 9.31164L13.0844 15.5343L8.86402 13.4796C8.7109 13.4052 8.54611 13.3687 8.38278 13.3687C8.1509 13.3687 7.92048 13.4431 7.72798 13.5875C7.39986 13.8339 7.23798 14.2423 7.30653 14.6477L8.89173 23.8833C8.98215 24.4083 9.43715 24.7918 9.96944 24.7918H17.4988V8.79102Z" fill="#FFC400"/>
</svg>
