<svg width="24" height="24" viewBox="0 0 24 24" fill="none" xmlns="http://www.w3.org/2000/svg">
<path fill-rule="evenodd" clip-rule="evenodd" d="M18.4051 7.20164L20.2451 8.30391C20.9103 8.71272 21.1769 9.53326 20.879 10.255L20.1616 11.9934L20.879 13.7318C21.1769 14.4535 20.9103 15.2741 20.2451 15.6829L18.4051 16.7851L17.9921 18.4956C17.8093 19.2529 17.1125 19.7619 16.3324 19.7015L14.2576 19.5409L13.0258 20.6212C12.7287 20.8743 12.3644 21.0009 12.0001 21.0009C11.6358 21.0009 11.2715 20.8744 10.9743 20.6212L9.74256 19.5409L7.66772 19.7015C6.88936 19.7617 6.19129 19.2546 6.00805 18.4956L5.59337 16.7783L3.75503 15.6829C3.08986 15.2741 2.82327 14.4535 3.12111 13.7318L3.83855 11.9934L3.12111 10.255C2.82327 9.53326 3.0899 8.71272 3.75507 8.30391L5.43779 7.30418L6.01272 5.47227C6.20293 4.72379 6.89562 4.22563 7.66772 4.28532L9.76428 4.44757L10.9743 3.37971C11.5687 2.87343 12.4315 2.87343 13.0258 3.37971L14.2358 4.44757L16.3324 4.28532C17.1109 4.22514 17.8089 4.73219 17.9921 5.49114L18.4051 7.20164ZM11.7699 8.81856L14.7605 6.98764C14.9811 6.85257 15.2646 7.01128 15.2646 7.26992V15.5855C15.2646 15.8422 14.985 16.0012 14.7643 15.8701L11.7699 14.0912V8.81856ZM9.14879 14.3587L9.16883 14.3599H10.7234L9.2535 16.905C9.16287 17.0619 8.96284 17.1168 8.80475 17.0281L7.81374 16.4723C7.65287 16.3821 7.59676 16.1779 7.68899 16.0182L8.69576 14.275C8.83982 14.3203 8.9915 14.3492 9.14879 14.3587ZM7.40571 12.5345V10.311C7.40571 10.1836 7.4195 10.0595 7.44503 9.9397H6.96362C6.61634 9.9397 6.33481 10.2211 6.33481 10.5683V12.2771C6.33481 12.6243 6.61634 12.9058 6.96362 12.9058H7.44486C7.41941 12.7857 7.40571 12.6615 7.40571 12.5345ZM9.19318 13.6975H11.111V9.22376H9.19318C8.57157 9.18605 8.06765 9.68979 8.06765 10.3112V12.5346C8.06765 13.1561 8.57157 13.6598 9.19318 13.6975ZM16.7216 14.1295C16.6368 14.1295 16.5521 14.0972 16.4874 14.0326L15.8195 13.3648C15.6902 13.2356 15.6902 13.026 15.8195 12.8967C15.9488 12.7675 16.1585 12.7675 16.2877 12.8967L16.9557 13.5645C17.085 13.6937 17.085 13.9033 16.9557 14.0326C16.891 14.0972 16.8063 14.1295 16.7216 14.1295ZM15.8183 10.0604C15.8829 10.125 15.9676 10.1573 16.0524 10.1573C16.1371 10.1573 16.2219 10.125 16.2865 10.0604L16.9545 9.39264C17.0837 9.26337 17.0837 9.05378 16.9545 8.92454C16.8251 8.79527 16.6155 8.79527 16.4862 8.92454L15.8183 9.59225C15.689 9.72152 15.689 9.93111 15.8183 10.0604ZM17.3045 11.8095H16.3598C16.177 11.8095 16.0287 11.6613 16.0287 11.4785C16.0287 11.2957 16.177 11.1475 16.3598 11.1475H17.3045C17.4873 11.1475 17.6356 11.2957 17.6356 11.4785C17.6356 11.6613 17.4873 11.8095 17.3045 11.8095Z" fill="#393D43"/>
</svg>
