<svg width="24" height="24" viewBox="0 0 24 24" fill="none" xmlns="http://www.w3.org/2000/svg">
<path fill-rule="evenodd" clip-rule="evenodd" d="M16.3283 3.97439L11.5976 6.87061V15.2111L16.3343 18.025C16.6834 18.2324 17.1256 17.9809 17.1256 17.5749V4.42091C17.1256 4.01177 16.6773 3.76073 16.3283 3.97439ZM7.48478 15.6358L7.45308 15.6338C7.20427 15.6188 6.96433 15.5731 6.73646 15.5013L5.14391 18.2588C4.998 18.5114 5.08677 18.8345 5.34123 18.9772L6.90886 19.8564C7.15893 19.9967 7.47535 19.9098 7.61871 19.6616L9.94381 15.6358H7.48478ZM4.69399 9.23211V12.7493C4.69399 12.9503 4.71567 13.1466 4.75591 13.3366H3.99468C3.44533 13.3366 3 12.8914 3 12.3422V9.63915C3 9.08997 3.44533 8.64478 3.99468 8.64478H4.75619C4.71581 8.83422 4.69399 9.03056 4.69399 9.23211ZM10.5543 14.5891H7.52068C6.53738 14.5295 5.74026 13.7326 5.74026 12.7496V9.23247C5.74026 8.24948 6.53738 7.45264 7.52068 7.5123H10.5543V14.5891ZM19.0582 15.1176C19.1605 15.2198 19.2945 15.2709 19.4285 15.2709C19.5626 15.2709 19.6966 15.2198 19.7989 15.1176C20.0034 14.9131 20.0034 14.5815 19.7989 14.3771L18.7423 13.3209C18.5378 13.1164 18.2061 13.1164 18.0016 13.3209C17.7971 13.5253 17.7971 13.8569 18.0016 14.0613L19.0582 15.1176ZM18.3713 8.98785C18.2372 8.98785 18.1032 8.93675 18.0009 8.83447C17.7964 8.63003 17.7964 8.29849 18.0009 8.09401L19.0575 7.03779C19.262 6.83331 19.5936 6.83331 19.7982 7.03779C20.0027 7.24223 20.0027 7.57377 19.7982 7.77825L18.7416 8.83447C18.6394 8.93671 18.5053 8.98785 18.3713 8.98785ZM18.8568 11.6009H20.351C20.6403 11.6009 20.8748 11.3665 20.8748 11.0773C20.8748 10.7882 20.6403 10.5537 20.351 10.5537H18.8568C18.5675 10.5537 18.333 10.7882 18.333 11.0773C18.333 11.3665 18.5675 11.6009 18.8568 11.6009Z" fill="#008C8C"/>
</svg>
