<svg width="24" height="24" viewBox="0 0 24 24" fill="none" xmlns="http://www.w3.org/2000/svg">
<path d="M21.4628 10.699C21.4623 10.6986 21.4618 10.6981 21.4614 10.6977L13.3021 2.53955C12.9544 2.19165 12.492 2 12.0001 2C11.5083 2 11.0459 2.1915 10.698 2.5394L2.54298 10.6934C2.54024 10.6961 2.53749 10.699 2.53474 10.7018C1.82056 11.42 1.82178 12.5853 2.53825 13.3017C2.86559 13.6292 3.29791 13.8188 3.76015 13.8387C3.77892 13.8405 3.79784 13.8414 3.81692 13.8414H4.14212V19.8453C4.14212 21.0334 5.10886 22 6.29733 22H9.48949C9.81301 22 10.0755 21.7377 10.0755 21.4141V16.707C10.0755 16.1649 10.5165 15.7239 11.0587 15.7239H12.9415C13.4837 15.7239 13.9248 16.1649 13.9248 16.707V21.4141C13.9248 21.7377 14.1871 22 14.5108 22H17.7029C18.8914 22 19.8581 21.0334 19.8581 19.8453V13.8414H20.1597C20.6514 13.8414 21.1138 13.6499 21.4618 13.302C22.1791 12.5844 22.1794 11.4171 21.4628 10.699V10.699Z" fill="#393D43"/>
</svg>
