<svg width="24" height="24" viewBox="0 0 24 24" fill="none" xmlns="http://www.w3.org/2000/svg">
<path fill-rule="evenodd" clip-rule="evenodd" d="M12 21C16.9706 21 21 16.9706 21 12C21 7.02944 16.9706 3 12 3C7.02944 3 3 7.02944 3 12C3 16.9706 7.02944 21 12 21ZM7.98162 9.15552C7.98162 8.70425 8.35085 8.33502 8.80212 8.33502C9.25343 8.33502 9.62266 8.70425 9.62262 9.15552V9.36063C9.62262 9.8119 9.25339 10.1811 8.80212 10.1811C8.35085 10.1811 7.98162 9.8119 7.98162 9.36063V9.15552ZM15.122 8.33502C14.6707 8.33502 14.3015 8.70425 14.3015 9.15552V9.36063C14.3015 9.8119 14.6707 10.1811 15.122 10.1811C15.5732 10.1811 15.9425 9.8119 15.9425 9.36063V9.15552C15.9425 8.70425 15.5732 8.33502 15.122 8.33502ZM15.5309 13.1763C15.8591 12.8481 16.3515 12.8481 16.6796 13.1763C17.0079 13.5045 17.0079 13.9968 16.6796 14.325C15.3668 15.6378 13.6437 16.2532 11.9617 16.2532C10.2796 16.2532 8.55657 15.5968 7.28476 14.325C6.95657 13.9968 6.95653 13.5045 7.28476 13.1763C7.61299 12.8481 8.1053 12.8481 8.43349 13.1763C10.4027 15.1455 13.5617 15.1455 15.5309 13.1763Z" fill="#393D43"/>
</svg>
