<svg width="24" height="24" viewBox="0 0 24 24" fill="none" xmlns="http://www.w3.org/2000/svg">
<path d="M12.4717 14.1874V16.6834C12.7008 16.568 12.9596 16.5029 13.2333 16.5029H13.702V16.5054H14.662V13.4258H13.2333C12.8134 13.4258 12.4717 13.7675 12.4717 14.1874V14.1874Z" fill="#008C8C"/>
<path d="M10.7726 13.4258H9.34375V16.5054H10.3038L10.7726 16.5029C11.0463 16.5029 11.3049 16.5685 11.5342 16.6838V14.1874C11.5342 13.7675 11.1925 13.4258 10.7726 13.4258Z" fill="#008C8C"/>
<path d="M19.25 10.95C19.1424 10.9583 19.0341 10.9628 18.9256 10.9628C18.3217 10.9628 17.7254 10.8339 17.1919 10.5889C16.6532 10.8403 16.0475 10.9729 15.4364 10.9729C14.8294 10.9729 14.2297 10.8425 13.694 10.595C13.1637 10.8359 12.5723 10.9628 11.9736 10.9628C11.3745 10.9628 10.7827 10.8358 10.2523 10.5945C9.72181 10.8358 9.13013 10.9628 8.53101 10.9628C7.93189 10.9628 7.34009 10.8358 6.8097 10.5945C6.27918 10.8358 5.6875 10.9628 5.08838 10.9628C4.93762 10.9628 4.81067 10.9543 4.66174 10.9385V19.0635H4V20.001H20V19.0635H19.25V10.95ZM15.599 17.4434H13.1715C12.7802 17.4747 12.4712 17.8032 12.4712 18.2025H11.5337C11.5337 17.8019 11.2228 17.4725 10.8295 17.4431L10.7721 17.4434H8.40577V12.4888H10.7721C11.2559 12.4888 11.6928 12.6923 12.0024 13.0178C12.3121 12.6923 12.749 12.4888 13.2328 12.4888H15.599V17.4434Z" fill="#008C8C"/>
<path d="M16.5809 9.81727V8.2832H14.2246V9.76429C14.6056 9.94117 15.0319 10.0344 15.4637 10.0344C15.8495 10.0344 16.2319 9.9596 16.5809 9.81727V9.81727Z" fill="#008C8C"/>
<path d="M14.2246 4.00098H16.5809V7.34669H14.2246V4.00098Z" fill="#008C8C"/>
<path d="M13.1834 9.79505V8.2832H10.8047V9.75721C11.184 9.93201 11.6077 10.0243 12.037 10.0243C12.4342 10.0243 12.8264 9.9452 13.1834 9.79505V9.79505Z" fill="#008C8C"/>
<path d="M9.76246 9.80042V8.2832H7.38379V9.75123C7.76648 9.93006 8.19507 10.0243 8.6294 10.0243C9.02161 10.0243 9.40919 9.94715 9.76246 9.80042Z" fill="#008C8C"/>
<path d="M7.38379 4.00098H9.76246V7.34669H7.38379V4.00098Z" fill="#008C8C"/>
<path d="M10.8047 4.00098H13.1834V7.34669H10.8047V4.00098Z" fill="#008C8C"/>
<path d="M6.37867 9.80042V8.2832H4V9.75123C4.38269 9.93006 4.81128 10.0243 5.24549 10.0243C5.63782 10.0243 6.0254 9.94715 6.37867 9.80042Z" fill="#008C8C"/>
<path d="M4 4H6.37867V7.34571H4V4Z" fill="#008C8C"/>
<path d="M17.6221 9.75123C18.0048 9.93006 18.4334 10.0243 18.8676 10.0243C19.2599 10.0243 19.6475 9.94715 20.0007 9.80042V8.2832H17.6221V9.75123Z" fill="#008C8C"/>
<path d="M17.6221 4.00098H20.0007V7.34669H17.6221V4.00098Z" fill="#008C8C"/>
</svg>
