<svg width="13" height="17" viewBox="0 0 13 17" fill="none" xmlns="http://www.w3.org/2000/svg">
<path fill-rule="evenodd" clip-rule="evenodd" d="M9.97692 3.32564C9.97692 5.16306 8.4887 6.65128 6.65128 6.65128C4.81386 6.65128 3.32564 5.16306 3.32564 3.32564C3.32564 1.48822 4.81386 0 6.65128 0C8.4887 0 9.97692 1.48822 9.97692 3.32564ZM0 11.6397C0 9.42819 4.43142 8.3141 6.65128 8.3141C7.77578 8.3141 9.46776 8.59998 10.8638 9.16958C10.7086 9.15367 10.5511 9.14552 10.3918 9.14552C7.86633 9.14552 5.81904 11.1928 5.81904 13.7183C5.81904 14.6385 6.09084 15.4952 6.55854 16.2125H0V11.6397ZM12.7506 11.9988C12.947 12.1929 12.9488 12.5095 12.7547 12.7059L10.2177 15.2731C10.1237 15.3681 9.99566 15.4216 9.86203 15.4216C9.7284 15.4216 9.60033 15.3681 9.5064 15.2731L8.35318 14.1062C8.15907 13.9098 8.16094 13.5932 8.35735 13.3991C8.55376 13.205 8.87033 13.2069 9.06444 13.4033L9.86203 14.2103L12.0435 12.003C12.2376 11.8066 12.5542 11.8047 12.7506 11.9988Z" fill="#7B7B7B"/>
</svg>
