<svg width="24" height="24" viewBox="0 0 24 24" fill="none" xmlns="http://www.w3.org/2000/svg">
<path d="M16.9325 5.90271C16.9325 5.50387 16.7769 5.1284 16.4948 4.84631L15.0862 3.43775C14.8081 3.15954 14.4132 3 14.0202 3H13.9346V5.98831H16.9326L16.9325 5.90271Z" fill="#393D43"/>
<path d="M13.0956 13.2777C13.191 12.9883 13.3573 12.7188 13.5742 12.5005L16.9464 9.14183V6.98441H13.4468C13.1715 6.98441 12.9649 6.76165 12.9649 6.48636V3H5.49415C4.67024 3 4 3.67024 4 4.49415V18.506C4 19.3299 4.67024 20.0001 5.49415 20.0001H15.439C16.2629 20.0001 16.9464 19.3299 16.9464 18.506V14.7888L16.3991 15.3229C16.1773 15.5427 15.9176 15.7027 15.6248 15.8005L14.0412 16.3292L13.7999 16.3424C13.4011 16.3424 13.0237 16.1483 12.7892 15.8234C12.5567 15.4999 12.4935 15.0807 12.62 14.7018L13.0956 13.2777ZM6.49025 11.9649H11.4546C11.7299 11.9649 11.9526 12.1877 11.9526 12.463C11.9526 12.7383 11.7299 12.961 11.4546 12.961H6.49025C6.21496 12.961 5.9922 12.7383 5.9922 12.463C5.9922 12.1877 6.21496 11.9649 6.49025 11.9649ZM5.9922 10.4708C5.9922 10.1955 6.21496 9.97271 6.49025 9.97271H11.4546C11.7299 9.97271 11.9526 10.1955 11.9526 10.4708C11.9526 10.7461 11.7299 10.9688 11.4546 10.9688H6.49025C6.21496 10.9688 5.9922 10.7461 5.9922 10.4708ZM5.9922 14.4552C5.9922 14.1799 6.21496 13.9571 6.49025 13.9571H11.4546C11.7299 13.9571 11.9526 14.1799 11.9526 14.4552C11.9526 14.7305 11.7299 14.9532 11.4546 14.9532H6.49025C6.21496 14.9532 5.9922 14.7305 5.9922 14.4552ZM13.4468 16.9454C13.7221 16.9454 13.9448 17.1682 13.9448 17.4435C13.9448 17.7188 13.7221 17.9415 13.4468 17.9415H10.4585C10.1832 17.9415 9.96044 17.7188 9.96044 17.4435C9.96044 17.1682 10.1832 16.9454 10.4585 16.9454H13.4468ZM6.49025 8.97661C6.21496 8.97661 5.9922 8.75385 5.9922 8.47856C5.9922 8.20327 6.21496 7.98051 6.49025 7.98051H13.4468C13.7221 7.98051 13.9448 8.20327 13.9448 8.47856C13.9448 8.75385 13.7221 8.97661 13.4468 8.97661H6.49025Z" fill="#393D43"/>
<path d="M13.9983 13.7188L13.565 15.0187C13.5 15.2134 13.6853 15.3987 13.8801 15.3336L15.1793 14.8997L13.9983 13.7188Z" fill="#393D43"/>
<path d="M17.8661 9.61816L14.5859 12.8983L16.0006 14.3129C16.7419 13.5714 18.1845 12.1287 19.2805 11.0326L17.8661 9.61816Z" fill="#393D43"/>
<path d="M20.7075 8.18886C20.5324 8.01278 20.2746 7.91211 20.0012 7.91211C19.7279 7.91211 19.4701 8.01278 19.294 8.18936L18.5703 8.91309L19.9847 10.3275C20.3809 9.93124 20.6548 9.65738 20.7085 9.60369C21.0976 9.21405 21.0975 8.5794 20.7075 8.18886Z" fill="#393D43"/>
<path d="M20.708 9.60619C20.708 9.60619 20.708 9.60614 20.7081 9.6061C20.7097 9.60453 20.7104 9.60382 20.7117 9.60254C20.7104 9.60386 20.7097 9.60457 20.708 9.60619Z" fill="#393D43"/>
<path d="M20.7119 9.60341C20.714 9.60133 20.7164 9.59891 20.7177 9.59766C20.7164 9.59895 20.714 9.60133 20.7119 9.60341Z" fill="#393D43"/>
<path d="M20.7158 9.59845C20.7207 9.59354 20.7208 9.59344 20.7158 9.59845V9.59845Z" fill="#393D43"/>
</svg>
