<svg width="24" height="24" viewBox="0 0 24 24" fill="none" xmlns="http://www.w3.org/2000/svg">
<path fill-rule="evenodd" clip-rule="evenodd" d="M8.42058 4C4.87459 4 2 6.87459 2 10.4206C2 13.0536 3.58495 15.3165 5.85283 16.3071V18.5233C5.85283 18.9688 6.3914 19.1918 6.70639 18.8769L8.74209 16.8412H14.1991C17.7451 16.8412 20.6197 13.9666 20.6197 10.4206C20.6197 6.87459 17.7451 4 14.1991 4H8.42058Z" fill="#008C8C"/>
<mask id="path-2-outside-1" maskUnits="userSpaceOnUse" x="7.61914" y="10" width="15" height="12" fill="black">
<rect fill="white" x="7.61914" y="10" width="15" height="12"/>
<path fill-rule="evenodd" clip-rule="evenodd" d="M17.2675 11C19.6709 11 21.6191 12.9483 21.6191 15.3516C21.6191 17.1364 20.5447 18.6702 19.0074 19.3415V20.4543C19.0074 20.8998 18.4688 21.1229 18.1538 20.8079L17.0492 19.7032H13.3511C10.9478 19.7032 8.99947 17.7549 8.99947 15.3516C8.99947 12.9483 10.9478 11 13.3511 11H17.2675Z"/>
</mask>
<path fill-rule="evenodd" clip-rule="evenodd" d="M17.2675 11C19.6709 11 21.6191 12.9483 21.6191 15.3516C21.6191 17.1364 20.5447 18.6702 19.0074 19.3415V20.4543C19.0074 20.8998 18.4688 21.1229 18.1538 20.8079L17.0492 19.7032H13.3511C10.9478 19.7032 8.99947 17.7549 8.99947 15.3516C8.99947 12.9483 10.9478 11 13.3511 11H17.2675Z" fill="#008C8C"/>
<path d="M19.0074 19.3415H18.0074V18.687L18.6072 18.425L19.0074 19.3415ZM18.1538 20.8079L18.8609 20.1008L18.8609 20.1008L18.1538 20.8079ZM17.0492 19.7032V18.7032H17.4634L17.7563 18.9961L17.0492 19.7032ZM20.6191 15.3516C20.6191 13.5006 19.1186 12 17.2675 12V10C20.2231 10 22.6191 12.396 22.6191 15.3516H20.6191ZM18.6072 18.425C19.7933 17.9071 20.6191 16.7247 20.6191 15.3516H22.6191C22.6191 17.548 21.2961 19.4332 19.4076 20.2579L18.6072 18.425ZM18.0074 20.4543V19.3415H20.0074V20.4543H18.0074ZM18.8609 20.1008C18.546 19.7858 18.0074 20.0089 18.0074 20.4543H20.0074C20.0074 21.7907 18.3917 22.4599 17.4467 21.515L18.8609 20.1008ZM17.7563 18.9961L18.8609 20.1008L17.4467 21.515L16.3421 20.4103L17.7563 18.9961ZM13.3511 18.7032H17.0492V20.7032H13.3511V18.7032ZM9.99947 15.3516C9.99947 17.2027 11.5 18.7032 13.3511 18.7032V20.7032C10.3955 20.7032 7.99947 18.3072 7.99947 15.3516H9.99947ZM13.3511 12C11.5 12 9.99947 13.5006 9.99947 15.3516H7.99947C7.99947 12.396 10.3955 10 13.3511 10V12ZM17.2675 12H13.3511V10H17.2675V12Z" fill="white" mask="url(#path-2-outside-1)"/>
<circle cx="12.875" cy="15.125" r="0.875" fill="white"/>
<circle cx="15.5" cy="15.125" r="0.875" fill="white"/>
<circle cx="18.125" cy="15.125" r="0.875" fill="white"/>
</svg>
