<svg width="22" height="16" viewBox="0 0 22 16" fill="none" xmlns="http://www.w3.org/2000/svg">
<path fill-rule="evenodd" clip-rule="evenodd" d="M13.772 7.27002C13.378 7.27002 13.062 7.60002 13.062 8.05802V8.07002C13.062 8.53402 13.378 8.86402 13.772 8.86402C14.172 8.86402 14.488 8.54102 14.488 8.07002V8.05802C14.488 7.60002 14.172 7.27102 13.772 7.27102" fill="#00AC47"/>
<mask id="mask0" mask-type="alpha" maskUnits="userSpaceOnUse" x="1" y="1" width="20" height="15">
<path d="M1.3999 1.521H20.5999V15.2H1.3999V1.521Z" fill="white"/>
</mask>
<g mask="url(#mask0)">
<path fill-rule="evenodd" clip-rule="evenodd" d="M15.6939 8.06403C15.6939 9.19903 14.9779 9.88803 14.1529 9.88803C13.6229 9.88803 13.3139 9.65103 13.0879 9.38603V10.844H11.8619V6.32303H13.0879V6.78603C13.3269 6.49603 13.6239 6.24503 14.1459 6.24503C14.9779 6.24503 15.6939 6.93503 15.6939 8.05103V8.06403ZM19.9679 1.68003C19.7599 1.57395 19.5294 1.51942 19.2959 1.52103C19.0859 1.52103 18.8759 1.56403 18.6869 1.64903C17.8019 2.04703 16.8519 2.24103 15.7839 2.24103C14.7809 2.24103 13.7539 2.07403 12.6909 1.85403C12.6909 1.87103 12.6939 1.88703 12.6939 1.90303C12.6939 3.67603 12.1739 5.32403 11.2889 6.71703C11.2919 6.75703 11.2989 6.79503 11.2989 6.83803V6.85103C11.2989 7.54103 10.9319 8.00003 10.3709 8.23803L11.4479 9.81203H10.0039L9.3809 8.87603C9.11405 9.09154 8.83527 9.29186 8.5459 9.47603V9.81203H7.9929C6.67371 10.5305 5.19504 10.9056 3.6929 10.903C2.91866 10.9 2.14802 10.7975 1.3999 10.598L1.3999 13.005C1.3999 13.127 1.4179 13.245 1.4479 13.358V13.42C1.4479 13.8 1.6879 14.149 2.0799 14.345C2.28891 14.4478 2.51898 14.5006 2.7519 14.499C2.9619 14.499 3.1709 14.459 3.3599 14.376C4.2459 13.988 5.1959 13.799 6.2639 13.799C7.6889 13.799 9.1589 14.121 10.7139 14.463C12.2839 14.809 13.9069 15.161 15.5869 15.194C15.6539 15.195 15.7189 15.2 15.7849 15.2H15.8329C15.8609 15.2 15.8879 15.197 15.9139 15.196C16.1142 15.1942 16.3143 15.1852 16.5139 15.169C16.6349 15.162 16.7609 15.164 16.8799 15.153C16.8139 15.155 16.7469 15.153 16.6819 15.155C17.8113 15.0532 18.9081 14.7218 19.9049 14.181C20.1163 14.0662 20.2925 13.8962 20.4149 13.6891C20.5373 13.482 20.6012 13.2456 20.5999 13.005V2.63303C20.5999 2.24203 20.3599 1.88203 19.9679 1.68003Z" fill="#00AC47"/>
</g>
<path fill-rule="evenodd" clip-rule="evenodd" d="M9.07992 8.44397H8.54492V9.47597C8.83492 9.28997 9.11492 9.09297 9.38092 8.87597L9.09292 8.44397H9.07992Z" fill="#53DC53"/>
<mask id="mask1" mask-type="alpha" maskUnits="userSpaceOnUse" x="1" y="0" width="12" height="11">
<path d="M1.3999 0.800049H12.6939V10.903H1.3999V0.800049Z" fill="white"/>
</mask>
<g mask="url(#mask1)">
<path fill-rule="evenodd" clip-rule="evenodd" d="M7.9929 9.81205H7.2939V5.29705H9.4289C10.1189 5.29705 10.5959 5.47705 10.8999 5.78705C11.1379 6.02005 11.2659 6.33105 11.2899 6.71705C12.2073 5.27907 12.6945 3.60876 12.6939 1.90305L12.6909 1.85305C12.2377 1.75939 11.7854 1.66172 11.3339 1.56005C9.6859 1.18705 7.9819 0.800049 6.2139 0.800049C5.9389 0.800049 5.6719 0.816049 5.4059 0.838049C5.3279 0.844049 5.2459 0.843049 5.1679 0.849049H5.2939C4.17294 0.952712 3.08466 1.2827 2.0949 1.81905C1.88418 1.9344 1.70844 2.1044 1.58614 2.31116C1.46384 2.51793 1.3995 2.75382 1.3999 2.99405V10.597C2.1329 10.789 2.8999 10.902 3.6939 10.902C5.1957 10.9045 6.67401 10.5293 7.9929 9.81105" fill="#53DC53"/>
</g>
<path fill-rule="evenodd" clip-rule="evenodd" d="M9.36492 6.38H8.54492V7.464H9.37092C9.79692 7.464 10.0409 7.25801 10.0409 6.92801V6.91601C10.0409 6.56101 9.78292 6.38 9.36492 6.38Z" fill="#53DC53"/>
</svg>
