<svg width="24" height="24" viewBox="0 0 24 24" fill="none" xmlns="http://www.w3.org/2000/svg">
<path fill-rule="evenodd" clip-rule="evenodd" d="M6 4C4.89543 4 4 4.89543 4 6V17.0588C4 18.1634 4.89543 19.0588 6 19.0588H18C19.1046 19.0588 20 18.1634 20 17.0588V6C20 4.89543 19.1046 4 18 4H6ZM16.022 9.02173L14.7288 7.76448H18.117V11.0586L16.8239 9.80134L13.2662 13.2547L11.0074 11.0586L6.82381 15.1489L6.02757 14.3748L11.0074 9.50487L13.2662 11.7009L16.022 9.02173ZM13.4118 16.6765C13.4118 16.4003 13.6356 16.1765 13.9118 16.1765H17.6176C17.8938 16.1765 18.1176 16.4003 18.1176 16.6765C18.1176 16.9526 17.8938 17.1765 17.6176 17.1765H13.9118C13.6356 17.1765 13.4118 16.9526 13.4118 16.6765Z" fill="#008C8C"/>
</svg>
