<svg width="24" height="24" viewBox="0 0 24 24" fill="none" xmlns="http://www.w3.org/2000/svg">
<path d="M18.5752 10.0298L18.1293 8.97213C18.1293 8.97213 19.1641 6.63699 19.0743 6.54715L17.7038 5.20847C17.6082 5.11617 15.2714 6.18124 15.2714 6.18124L14.1933 5.7459C14.1933 5.7459 13.2385 3.37891 13.1094 3.37891H11.1737C11.0397 3.37891 10.1593 5.75243 10.1593 5.75243L9.08195 6.1894C9.08195 6.1894 6.69536 5.17498 6.60388 5.26237L5.23416 6.60432C5.13941 6.69825 6.2298 8.98602 6.2298 8.98602L5.78548 10.0437C5.78548 10.0437 3.36621 10.974 3.36621 11.1014V12.998C3.36621 13.1287 5.7912 13.992 5.7912 13.992L6.23633 15.0464C6.23633 15.0464 5.20067 17.3832 5.29133 17.4731L6.66269 18.8134C6.75498 18.904 9.09339 17.8373 9.09339 17.8373L10.1723 18.2759C10.1723 18.2759 11.1247 20.6413 11.2554 20.6413H13.1911C13.3242 20.6413 14.2072 18.2678 14.2072 18.2678L15.2853 17.8308C15.2853 17.8308 17.6686 18.8452 17.7609 18.7578L19.1315 17.4159C19.2254 17.3252 18.1342 15.0358 18.1342 15.0358L18.5801 13.9781C18.5801 13.9781 21.0002 13.0445 21.0002 12.9171V11.0222C21.001 10.8924 18.5752 10.0298 18.5752 10.0298ZM12.1832 14.7753C10.6273 14.7753 9.35802 13.5338 9.35802 12.0089C9.35802 10.4856 10.6273 9.24412 12.1832 9.24412C13.7416 9.24412 15.0084 10.4856 15.0084 12.0089C15.0084 13.5346 13.7416 14.7753 12.1832 14.7753Z" fill="#393D43"/>
</svg>
