<svg width="24" height="24" viewBox="0 0 24 24" fill="none" xmlns="http://www.w3.org/2000/svg">
<path d="M21 8.17725V5.52734C21 5.23611 20.7639 5 20.4727 5H3.52734C3.23611 5 3 5.23611 3 5.52734V8.17725H21Z" fill="#393D43"/>
<path d="M10.9409 12.4131H13.0591C13.3523 12.4131 13.5908 12.1746 13.5908 11.8813C13.5908 11.5881 13.3523 11.3496 13.0591 11.3496H10.9409C10.6477 11.3496 10.4092 11.5881 10.4092 11.8813C10.4092 12.1746 10.6477 12.4131 10.9409 12.4131Z" fill="#393D43"/>
<path d="M4.05859 9.23242V18.2368C4.05859 18.5281 4.2947 18.7642 4.58594 18.7642H19.4131C19.7043 18.7642 19.9404 18.5281 19.9404 18.2368V9.23242H4.05859ZM10.9404 10.2959H13.0586C13.9334 10.2959 14.645 11.0076 14.645 11.8823C14.645 12.7571 13.9334 13.4688 13.0586 13.4688H10.9404C10.0657 13.4688 9.354 12.7571 9.354 11.8823C9.354 11.0076 10.0657 10.2959 10.9404 10.2959Z" fill="#393D43"/>
</svg>
