<svg width="24" height="24" viewBox="0 0 24 24" fill="none" xmlns="http://www.w3.org/2000/svg">
<path d="M17.3086 13.3828C17.0176 13.3828 16.7812 13.6192 16.7812 13.9102C16.7812 14.2011 17.0176 14.4375 17.3086 14.4375C17.5995 14.4375 17.8359 14.2011 17.8359 13.9102C17.8359 13.6192 17.5995 13.3828 17.3086 13.3828Z" fill="#393D43"/>
<path d="M20.4727 6H8.31721V7.58203C8.31721 7.87351 8.08134 8.10937 7.78986 8.10937C7.49838 8.10937 7.26252 7.87351 7.26252 7.58203V6H3.52734C3.23586 6 3 6.23586 3 6.52734V9.69141C3 9.98289 3.23586 10.2187 3.52734 10.2187C4.39971 10.2187 5.10938 10.9284 5.10938 11.8008C5.10938 12.6731 4.39971 13.3828 3.52734 13.3828C3.23586 13.3828 3 13.6187 3 13.9102V17.0742C3 17.3657 3.23586 17.6016 3.52734 17.6016H7.21875V16.0195C7.21875 15.728 7.45461 15.4922 7.74609 15.4922C8.03757 15.4922 8.27344 15.728 8.27344 16.0195V17.6016H20.4727C20.7641 17.6016 21 17.3657 21 17.0742V6.52734C21 6.23586 20.7641 6 20.4727 6ZM8.27344 13.9102C8.27344 14.2016 8.03757 14.4375 7.74609 14.4375C7.45461 14.4375 7.21875 14.2016 7.21875 13.9102V12.8555C7.21875 12.564 7.45461 12.3281 7.74609 12.3281C8.03757 12.3281 8.27344 12.564 8.27344 12.8555V13.9102ZM8.27344 10.7461C8.27344 11.0376 8.03757 11.2734 7.74609 11.2734C7.45461 11.2734 7.21875 11.0376 7.21875 10.7461V9.69141C7.21875 9.39993 7.45461 9.16406 7.74609 9.16406C8.03757 9.16406 8.27344 9.39993 8.27344 9.69141V10.7461ZM11.5078 9.69141C11.5078 8.81904 12.2175 8.10937 13.0898 8.10937C13.9622 8.10937 14.6719 8.81904 14.6719 9.69141C14.6719 10.5638 13.9622 11.2734 13.0898 11.2734C12.2175 11.2734 11.5078 10.5638 11.5078 9.69141ZM12.7973 15.4036C12.5548 15.2419 12.4894 14.9149 12.6511 14.6723L16.8698 8.34418C17.031 8.10164 17.3581 8.03674 17.6011 8.19793C17.8437 8.35965 17.9091 8.68664 17.7474 8.92922L13.5286 15.2573C13.3695 15.4963 13.0438 15.5669 12.7973 15.4036ZM17.3086 15.4922C16.4362 15.4922 15.7266 14.7825 15.7266 13.9102C15.7266 13.0378 16.4362 12.3281 17.3086 12.3281C18.181 12.3281 18.8906 13.0378 18.8906 13.9102C18.8906 14.7825 18.181 15.4922 17.3086 15.4922Z" fill="#393D43"/>
<path d="M13.0898 9.16406C12.7989 9.16406 12.5625 9.40045 12.5625 9.69141C12.5625 9.98236 12.7989 10.2188 13.0898 10.2188C13.3808 10.2188 13.6172 9.98236 13.6172 9.69141C13.6172 9.40045 13.3808 9.16406 13.0898 9.16406Z" fill="#393D43"/>
</svg>
