<svg width="19" height="22" viewBox="0 0 19 22" fill="none" xmlns="http://www.w3.org/2000/svg">
<path d="M18.0157 7.20821V14.8339C18.0153 15.2551 17.9041 15.6688 17.6933 16.0334C17.4825 16.3981 17.1796 16.7009 16.8148 16.9115L10.2098 20.7304C9.84474 20.9411 9.43056 21.0521 9.00894 21.0521C8.58732 21.0521 8.1732 20.9411 7.80804 20.7304L1.2031 16.9115C0.838339 16.7009 0.535375 16.3981 0.324595 16.0334C0.113815 15.6688 0.00262927 15.2551 0.00219727 14.8339V7.20821C0.00262927 6.78701 0.113815 6.37332 0.324595 6.0087C0.535375 5.64402 0.838339 5.34126 1.2031 5.13066L7.80804 1.31177C8.1732 1.10097 8.58732 0.98999 9.00894 0.98999C9.43056 0.98999 9.84474 1.10097 10.2098 1.31177L12.6116 2.69281L16.8148 5.13066C17.1796 5.34126 17.4825 5.64402 17.6933 6.0087C17.9041 6.37332 18.0153 6.78701 18.0157 7.20821Z" fill="#9FA6B0"/>
<path d="M12.6116 3.20319C12.6116 5.75118 11.5994 8.1948 9.79776 9.99654C7.99608 11.7982 5.55246 12.8104 3.00444 12.8104C1.98444 12.812 0.970789 12.6498 0.00219727 12.3301V7.20822C0.00262927 6.78702 0.113815 6.37332 0.324595 6.0087C0.535375 5.64402 0.838339 5.34126 1.2031 5.13066L7.80804 1.31177C8.1732 1.10097 8.58732 0.98999 9.00894 0.98999C9.43056 0.98999 9.84474 1.10097 10.2098 1.31177L12.6116 2.69281C12.6116 2.86693 12.6116 3.04107 12.6116 3.20319Z" fill="#B5BBC5"/>
<path d="M8.66681 14.6778C8.88101 14.5938 9.11909 14.5938 9.33329 14.6778L10.8704 15.2782C11.0156 15.3331 11.1721 15.3511 11.3259 15.3305C11.4797 15.3099 11.6259 15.2515 11.7515 15.1604C11.8772 15.0693 11.9781 14.9485 12.0455 14.8087C12.1128 14.6689 12.1445 14.5146 12.1374 14.3596L12.0533 12.7203C12.0436 12.4897 12.1184 12.2634 12.2635 12.0838L13.2903 10.8049C13.3889 10.6841 13.4556 10.5404 13.4841 10.3871C13.5128 10.2338 13.5024 10.0757 13.454 9.92744C13.4055 9.77918 13.3206 9.6455 13.2071 9.53864C13.0934 9.43172 12.9548 9.3551 12.8039 9.3158L11.1527 8.86544L10.8765 8.79338L10.1439 7.64654L9.78365 7.10012C9.69845 6.97004 9.58223 6.86324 9.44543 6.78932C9.30863 6.71534 9.15557 6.67664 9.00005 6.67664C8.84453 6.67664 8.69153 6.71534 8.55473 6.78932C8.41793 6.86324 8.30165 6.97004 8.21645 7.10012L7.86221 7.64654L7.32179 8.47514C7.19561 8.66714 7.00331 8.80604 6.78137 8.86544L5.19623 9.2978C5.04623 9.33842 4.90871 9.41582 4.79609 9.52286C4.68341 9.6299 4.59917 9.76328 4.55093 9.911C4.50269 10.0587 4.49195 10.2162 4.51967 10.369C4.54745 10.5219 4.61279 10.6656 4.70981 10.7869L5.74259 12.0658C5.88611 12.246 5.95871 12.4723 5.94677 12.7023L5.86271 14.3416C5.85677 14.4968 5.88929 14.6511 5.95739 14.7907C6.02549 14.9304 6.12707 15.051 6.25307 15.142C6.37901 15.2329 6.52553 15.2913 6.67949 15.3119C6.83351 15.3325 6.99017 15.3148 7.13567 15.2602L8.66681 14.6598" fill="white"/>
</svg>
