<svg width="24" height="24" viewBox="0 0 24 24" fill="none" xmlns="http://www.w3.org/2000/svg">
<path d="M16.9699 14.5237C16.2636 15.4937 15.1195 16.1255 13.8306 16.1255H12.0219C11.3971 16.1255 10.8651 15.7288 10.6636 15.1736C10.4149 15.0994 10.171 15.0031 9.93304 14.8849C9.42907 14.6345 8.97146 14.2952 8.56863 13.875C5.95564 14.449 4 16.7773 4 19.5628V19.9268C4 20.4273 4.40574 20.8331 4.90622 20.8331H18.9664C19.4669 20.8331 19.8726 20.4273 19.8726 19.9268V19.5628C19.8726 17.411 18.7054 15.532 16.9699 14.5237Z" fill="#008C8C"/>
<path d="M7.60708 12.0078C7.99656 12.0078 8.33557 11.792 8.51121 11.4734C8.51582 11.486 8.52052 11.4985 8.52525 11.5111C8.52665 11.5148 8.52805 11.5186 8.52944 11.5224C8.94147 12.6069 9.74317 13.5161 10.8003 13.9133C11.056 13.5071 11.5081 13.2369 12.0236 13.2369H13.8322C14.0126 13.2369 14.1805 13.186 14.3277 13.1037C14.575 12.9655 14.7973 12.6148 14.9121 12.4289C15.0958 12.1314 15.2381 11.8164 15.3643 11.4729C15.4352 11.6017 15.5328 11.7137 15.6496 11.8015V12.245C15.6496 13.2471 14.8344 14.0624 13.8322 14.0624H12.0235C11.6816 14.0624 11.4044 14.3396 11.4044 14.6816C11.4044 15.0235 11.6816 15.3007 12.0235 15.3007H13.8322C15.5171 15.3007 16.8879 13.9299 16.8879 12.245V11.8015C17.1385 11.6132 17.3006 11.3136 17.3006 10.976V9.1091V8.39322C17.3006 8.0487 17.1317 7.74387 16.8722 7.55644C16.671 5.01031 14.5349 3 11.9379 3C9.34092 3 7.20479 5.01031 7.00359 7.5564C6.74416 7.74383 6.5752 8.0487 6.5752 8.39318V10.9759C6.5752 11.5474 7.03948 12.0078 7.60708 12.0078ZM11.9379 4.23829C13.8604 4.23829 15.4461 5.70745 15.6314 7.58201C15.5097 7.67772 15.4101 7.80005 15.3414 7.94042C14.7572 6.41624 13.4531 5.35506 11.9379 5.35506C10.39 5.35506 9.10682 6.45271 8.53666 7.93433C8.53588 7.93634 8.53515 7.9384 8.53437 7.94046C8.4657 7.80009 8.36603 7.67776 8.24436 7.58205C8.42981 5.70745 10.0154 4.23829 11.9379 4.23829Z" fill="#008C8C"/>
</svg>
