<svg width="24" height="24" viewBox="0 0 24 24" fill="none" xmlns="http://www.w3.org/2000/svg">
<path fill-rule="evenodd" clip-rule="evenodd" d="M18.405 7.2016L20.245 8.30387C20.9101 8.71267 21.1767 9.5332 20.8789 10.2549L20.1614 11.9933L20.8789 13.7317C21.1767 14.4534 20.9101 15.2739 20.245 15.6828L18.405 16.785L17.992 18.4955C17.8091 19.2527 17.1123 19.7617 16.3323 19.7013L14.2575 19.5407L13.0257 20.621C12.7286 20.8742 12.3643 21.0007 12 21.0007C11.6357 21.0007 11.2714 20.8742 10.9743 20.621L9.74249 19.5407L7.66768 19.7013C6.88933 19.7615 6.19126 19.2544 6.00802 18.4955L5.59335 16.7781L3.75502 15.6828C3.08986 15.2739 2.82328 14.4534 3.12111 13.7317L3.83854 11.9933L3.12111 10.2549C2.82328 9.5332 3.0899 8.71267 3.75506 8.30387L5.43777 7.30414L6.0127 5.47225C6.2029 4.72378 6.89558 4.22562 7.66768 4.2853L9.76422 4.44756L10.9743 3.37971C11.5686 2.87343 12.4314 2.87343 13.0257 3.37971L14.2357 4.44756L16.3323 4.2853C17.1108 4.22512 17.8087 4.73218 17.992 5.49112L18.405 7.2016ZM16.4976 10.0653C16.8906 9.67731 16.8948 9.04416 16.5068 8.65109C16.1189 8.25802 15.4857 8.25388 15.0926 8.64184L10.6393 13.0374L8.99817 11.4176C8.6051 11.0296 7.97195 11.0338 7.58398 11.4268C7.19602 11.8199 7.20016 12.4531 7.59323 12.841L9.93679 15.1542C10.3262 15.5385 10.9523 15.5385 11.3417 15.1542L16.4976 10.0653Z" fill="#393D43"/>
</svg>
