<svg width="18" height="17" viewBox="0 0 18 17" fill="none" xmlns="http://www.w3.org/2000/svg">
<path fill-rule="evenodd" clip-rule="evenodd" d="M13.3283 0.0779042L8.59758 2.97413V11.3146L13.3343 14.1285C13.6834 14.3359 14.1256 14.0844 14.1256 13.6784V0.524422C14.1256 0.115289 13.6773 -0.135756 13.3283 0.0779042ZM4.48478 11.7393L4.45308 11.7373C4.20427 11.7223 3.96433 11.6766 3.73646 11.6048L2.14391 14.3623C1.998 14.6149 2.08677 14.938 2.34123 15.0808L3.90886 15.9599C4.15893 16.1002 4.47535 16.0133 4.61871 15.7651L6.94381 11.7393H4.48478ZM1.69399 5.33562V8.85279C1.69399 9.05382 1.71567 9.25016 1.75591 9.44012H0.994683C0.445332 9.44012 0 8.99493 0 8.44576V5.74266C0 5.19349 0.445332 4.7483 0.994683 4.7483H1.75619C1.71581 4.93773 1.69399 5.13408 1.69399 5.33562ZM7.5543 10.6926H4.52068C3.53738 10.633 2.74026 9.83611 2.74026 8.85312V5.33598C2.74026 4.35299 3.53738 3.55616 4.52068 3.61581H7.5543V10.6926ZM16.0582 11.2211C16.1605 11.3233 16.2945 11.3744 16.4285 11.3744C16.5626 11.3744 16.6966 11.3233 16.7989 11.2211C17.0034 11.0166 17.0034 10.685 16.7989 10.4806L15.7423 9.42438C15.5378 9.21994 15.2061 9.21994 15.0016 9.42438C14.7971 9.62886 14.7971 9.9604 15.0016 10.1648L16.0582 11.2211ZM15.3713 5.09136C15.2372 5.09136 15.1032 5.04026 15.0009 4.93799C14.7964 4.73354 14.7964 4.402 15.0009 4.19752L16.0575 3.1413C16.262 2.93682 16.5936 2.93682 16.7982 3.1413C17.0027 3.34575 17.0027 3.67728 16.7982 3.88176L15.7416 4.93799C15.6394 5.04023 15.5053 5.09136 15.3713 5.09136ZM15.8568 7.70444H17.351C17.6403 7.70444 17.8748 7.47001 17.8748 7.18085C17.8748 6.89169 17.6403 6.65726 17.351 6.65726H15.8568C15.5675 6.65726 15.333 6.89169 15.333 7.18085C15.333 7.47001 15.5675 7.70444 15.8568 7.70444Z" fill="#008C8C"/>
</svg>
