<svg width="77" height="77" viewBox="0 0 77 77" fill="none" xmlns="http://www.w3.org/2000/svg">
<path fill-rule="evenodd" clip-rule="evenodd" d="M38.5 64C52.5833 64 64 52.5833 64 38.5C64 24.4167 52.5833 13 38.5 13C24.4167 13 13 24.4167 13 38.5C13 52.5833 24.4167 64 38.5 64ZM27.1123 30.4431C27.1123 29.1645 28.1584 28.1183 29.4371 28.1183C30.7157 28.1183 31.7619 29.1645 31.7618 30.4431V31.0242C31.7618 32.3028 30.7156 33.349 29.4371 33.349C28.1584 33.349 27.1123 32.3028 27.1123 31.0242V30.4431ZM47.342 28.1184C46.0634 28.1184 45.0173 29.1645 45.0173 30.4431V31.0243C45.0173 32.3029 46.0634 33.349 47.342 33.349C48.6207 33.349 49.6668 32.3029 49.6668 31.0243V30.4431C49.6668 29.1645 48.6207 28.1184 47.342 28.1184ZM48.4967 41.8346C49.4267 40.9047 50.8216 40.9047 51.7515 41.8346C52.6814 42.7645 52.6814 44.1593 51.7515 45.0893C48.0317 48.8089 43.1496 50.5525 38.3838 50.5525C33.6182 50.5525 28.7361 48.6927 25.1326 45.0893C24.2027 44.1593 24.2026 42.7645 25.1326 41.8346C26.0626 40.9047 27.4575 40.9047 28.3874 41.8346C33.9668 47.4141 42.9173 47.4141 48.4967 41.8346Z" fill="#008C8C"/>
</svg>
