<svg width="77" height="77" viewBox="0 0 77 77" fill="none" xmlns="http://www.w3.org/2000/svg">
<path d="M38.4994 16.751H11.4583C10.8063 16.751 10.181 17.01 9.72001 17.471C9.259 17.932 9 18.5573 9 19.2093V51.1669C9 51.8189 9.259 52.4442 9.72001 52.9052C10.181 53.3662 10.8063 53.6252 11.4583 53.6252H13.9166C13.9166 51.0173 14.9525 48.5162 16.7966 46.6721C18.6407 44.8281 21.1418 43.7921 23.7497 43.7921C26.3576 43.7921 28.8587 44.8281 30.7028 46.6721C32.5468 48.5162 33.5828 51.0173 33.5828 53.6252H38.4994C39.1514 53.6252 39.7766 53.3662 40.2377 52.9052C40.6987 52.4442 40.9577 51.8189 40.9577 51.1669V19.2093C40.9577 18.5573 40.6987 17.932 40.2377 17.471C39.7766 17.01 39.1514 16.751 38.4994 16.751ZM36.0411 40.1238H23.7497V36.4172H36.0411V40.1238ZM36.0411 32.8625H18.8331V29.0424H36.0411V32.8625ZM36.0411 25.6011H13.9166V21.6675H36.0411V25.6011Z" fill="#008C8C"/>
<path d="M55.7069 46.25C54.2483 46.25 52.8224 46.6825 51.6096 47.4929C50.3969 48.3032 49.4516 49.455 48.8934 50.8026C48.3352 52.1502 48.1892 53.633 48.4737 55.0636C48.7583 56.4942 49.4607 57.8083 50.4921 58.8397C51.5235 59.871 52.8375 60.5734 54.2681 60.858C55.6987 61.1425 57.1815 60.9965 58.5291 60.4383C59.8767 59.8801 61.0285 58.9349 61.8388 57.7221C62.6492 56.5093 63.0817 55.0835 63.0817 53.6248C63.0795 51.6696 62.3018 49.795 60.9193 48.4125C59.5367 47.0299 57.6621 46.2522 55.7069 46.25ZM55.7069 56.0831C55.2207 56.0831 54.7454 55.939 54.3411 55.6688C53.9369 55.3987 53.6218 55.0148 53.4357 54.5656C53.2497 54.1164 53.201 53.6221 53.2958 53.1453C53.3907 52.6684 53.6248 52.2304 53.9686 51.8866C54.3124 51.5428 54.7504 51.3087 55.2273 51.2138C55.7042 51.1189 56.1984 51.1676 56.6476 51.3537C57.0968 51.5398 57.4808 51.8548 57.7509 52.2591C58.021 52.6634 58.1652 53.1386 58.1652 53.6248C58.1652 54.2768 57.9062 54.9021 57.4452 55.3631C56.9841 55.8241 56.3589 56.0831 55.7069 56.0831Z" fill="#008C8C"/>
<path d="M23.7499 46.25C22.2912 46.25 20.8654 46.6825 19.6526 47.4929C18.4398 48.3032 17.4946 49.455 16.9364 50.8026C16.3782 52.1502 16.2321 53.633 16.5167 55.0636C16.8013 56.4942 17.5037 57.8083 18.535 58.8397C19.5664 59.871 20.8805 60.5734 22.3111 60.858C23.7417 61.1425 25.2245 60.9965 26.5721 60.4383C27.9197 59.8801 29.0715 58.9349 29.8818 57.7221C30.6922 56.5093 31.1247 55.0835 31.1247 53.6248C31.1225 51.6696 30.3448 49.795 28.9622 48.4125C27.5797 47.0299 25.7051 46.2522 23.7499 46.25ZM23.7499 56.0831C23.2636 56.0831 22.7884 55.939 22.3841 55.6688C21.9798 55.3987 21.6648 55.0148 21.4787 54.5656C21.2926 54.1164 21.2439 53.6221 21.3388 53.1453C21.4337 52.6684 21.6678 52.2304 22.0116 51.8866C22.3554 51.5428 22.7934 51.3087 23.2703 51.2138C23.7471 51.1189 24.2414 51.1676 24.6906 51.3537C25.1398 51.5398 25.5237 51.8548 25.7938 52.2591C26.064 52.6634 26.2081 53.1386 26.2081 53.6248C26.2081 54.2768 25.9491 54.9021 25.4881 55.3631C25.0271 55.8241 24.4018 56.0831 23.7499 56.0831Z" fill="#008C8C"/>
<path d="M67.67 37.6502L60.6024 25.3588C60.3869 24.9841 60.0764 24.6728 59.7022 24.4563C59.328 24.2399 58.9034 24.1259 58.4711 24.126H43.4141V53.6254H45.8724C45.8724 51.0175 46.9084 48.5164 48.7525 46.6723C50.5965 44.8282 53.0976 43.7922 55.7055 43.7922C58.3134 43.7922 60.8145 44.8282 62.6586 46.6723C64.5027 48.5164 65.5387 51.0175 65.5387 53.6254C66.1906 53.6254 66.8159 53.3664 67.2769 52.9054C67.7379 52.4443 67.9969 51.8191 67.9969 51.1671V38.8757C67.9969 38.4456 67.8842 38.0231 67.67 37.6502ZM48.3307 36.4174V26.5843H58.4711L64.1251 36.4174H48.3307Z" fill="#008C8C"/>
</svg>
