<svg width="77" height="77" viewBox="0 0 77 77" fill="none" xmlns="http://www.w3.org/2000/svg">
<path d="M52.9175 56.9407C53.4072 56.9369 53.9487 56.7708 54.4567 56.25C54.981 55.666 55.0002 54.993 55.0004 54.833V14.1225C55.0004 12.9503 54.0489 12 52.8752 12H26.3203C26.8596 12.5322 27.2583 13.1706 27.4954 13.8691H29.0629C30.1812 13.8691 31.1001 14.7363 31.1835 15.8334H36.4062C38.2907 15.8334 39.8238 17.3641 39.8238 19.2455V56.9556C39.8239 56.9555 48.588 56.9456 52.9175 56.9407Z" fill="#008C8C"/>
<path d="M24.7933 15.3777C24.7732 14.38 23.939 13.5684 22.9337 13.5684C21.9285 13.5684 21.0942 14.38 21.0742 15.3776C21.0579 16.1823 20.4017 16.8261 19.5977 16.8261H17.6328C17.633 17.156 17.6327 18.1249 17.6328 18.4432H28.2347C28.2352 18.0088 28.2331 17.244 28.2347 16.8261H26.2698C25.4659 16.8261 24.8096 16.1823 24.7933 15.3777Z" fill="#008C8C"/>
<path d="M36.4048 18.79H31.1889V19.0997C31.1889 20.3679 30.1566 21.3996 28.8877 21.3996H16.9812C15.7123 21.3996 14.6799 20.3678 14.6799 19.0997V18.79H9.46401C9.20814 18.79 9 18.9943 9 19.2454V57.5423C9 57.7934 9.20814 57.9977 9.46401 57.9977H36.4048C36.6607 57.9977 36.8688 57.7934 36.8688 57.5423V19.2454C36.8687 18.9943 36.6606 18.79 36.4048 18.79ZM12.2481 27.4335C12.7991 26.8245 13.7393 26.7775 14.3483 27.3285L15.0797 27.9903L17.8087 24.8736C18.3496 24.2557 19.2891 24.1936 19.9069 24.7345C20.5248 25.2755 20.5871 26.2149 20.0461 26.8328L16.3215 31.0865C15.7397 31.769 14.6961 31.669 14.2052 31.2096L12.353 29.5338C11.7441 28.9828 11.6971 28.0424 12.2481 27.4335ZM32.5015 54.6553H13.2286C12.4074 54.6553 11.7416 53.9896 11.7416 53.1684C11.7416 52.3471 12.4073 51.6814 13.2286 51.6814H32.5015C33.3227 51.6814 33.9884 52.3471 33.9884 53.1684C33.9884 53.9896 33.3227 54.6553 32.5015 54.6553ZM12.2481 44.4793C12.7991 43.8704 13.7393 43.8233 14.3483 44.3743L15.0797 45.0361L17.8087 41.9195C18.3496 41.3015 19.2891 41.2393 19.9069 41.7803C20.5248 42.3213 20.5871 43.2607 20.0461 43.8785L16.3215 48.1322C15.7397 48.8148 14.6961 48.7147 14.2052 48.2553L12.353 46.5796C11.7441 46.0285 11.6971 45.0883 12.2481 44.4793ZM32.5015 48.5758H24.1417C23.3205 48.5758 22.6548 47.9101 22.6548 47.0889C22.6548 46.2677 23.3205 45.602 24.1417 45.602H32.5015C33.3227 45.602 33.9884 46.2677 33.9884 47.0889C33.9884 47.9101 33.3227 48.5758 32.5015 48.5758ZM32.5015 37.7034H13.2286C12.4074 37.7034 11.7416 37.0377 11.7416 36.2165C11.7416 35.3953 12.4073 34.7295 13.2286 34.7295H32.5015C33.3227 34.7295 33.9884 35.3953 33.9884 36.2165C33.9884 37.0377 33.3227 37.7034 32.5015 37.7034ZM32.5015 31.5358H24.1417C23.3205 31.5358 22.6548 30.8701 22.6548 30.0488C22.6548 29.2277 23.3205 28.5619 24.1417 28.5619H32.5015C33.3227 28.5619 33.9884 29.2277 33.9884 30.0488C33.9884 30.87 33.3227 31.5358 32.5015 31.5358Z" fill="#008C8C"/>
<path d="M53 66C61.8366 66 69 58.8366 69 50C69 41.1634 61.8366 34 53 34C44.1634 34 37 41.1634 37 50C37 58.8366 44.1634 66 53 66Z" fill="white"/>
<path fill-rule="evenodd" clip-rule="evenodd" d="M53 63C60.1797 63 66 57.1797 66 50C66 42.8203 60.1797 37 53 37C45.8203 37 40 42.8203 40 50C40 57.1797 45.8203 63 53 63ZM53 41.5C53.8284 41.5 54.5 42.1716 54.5 43V51C54.5 51.8284 53.8284 52.5 53 52.5C52.1716 52.5 51.5 51.8284 51.5 51V43C51.5 42.1716 52.1716 41.5 53 41.5ZM53 54.5C52.1716 54.5 51.5 55.1716 51.5 56C51.5 56.8284 52.1716 57.5 53 57.5H53.013C53.8414 57.5 54.513 56.8284 54.513 56C54.513 55.1716 53.8414 54.5 53.013 54.5H53Z" fill="#FFC400"/>
</svg>
