<svg width="77" height="77" viewBox="0 0 77 77" fill="none" xmlns="http://www.w3.org/2000/svg">
<path d="M59.9175 61.9407C60.4072 61.9369 60.9487 61.7708 61.4567 61.25C61.981 60.666 62.0002 59.993 62.0004 59.833V19.1225C62.0004 17.9503 61.0489 17 59.8752 17H33.3203C33.8596 17.5322 34.2583 18.1706 34.4954 18.8691H36.0629C37.1812 18.8691 38.1001 19.7363 38.1835 20.8334H43.4062C45.2907 20.8334 46.8238 22.3641 46.8238 24.2455V61.9556C46.8239 61.9555 55.588 61.9456 59.9175 61.9407Z" fill="#008C8C"/>
<path d="M31.7933 20.3777C31.7732 19.38 30.939 18.5684 29.9337 18.5684C28.9285 18.5684 28.0942 19.38 28.0742 20.3776C28.0579 21.1823 27.4017 21.8261 26.5977 21.8261H24.6328C24.633 22.156 24.6327 23.1249 24.6328 23.4432H35.2347C35.2352 23.0088 35.2331 22.244 35.2347 21.8261H33.2698C32.4659 21.8261 31.8096 21.1823 31.7933 20.3777Z" fill="#008C8C"/>
<path d="M43.4048 23.79H38.1889V24.0997C38.1889 25.3679 37.1566 26.3996 35.8877 26.3996H23.9812C22.7123 26.3996 21.6799 25.3678 21.6799 24.0997V23.79H16.464C16.2081 23.79 16 23.9943 16 24.2454V62.5423C16 62.7934 16.2081 62.9977 16.464 62.9977H43.4048C43.6607 62.9977 43.8688 62.7934 43.8688 62.5423V24.2454C43.8687 23.9943 43.6606 23.79 43.4048 23.79ZM19.2481 32.4335C19.7991 31.8245 20.7393 31.7775 21.3483 32.3285L22.0797 32.9903L24.8087 29.8736C25.3496 29.2557 26.2891 29.1936 26.9069 29.7345C27.5248 30.2755 27.5871 31.2149 27.0461 31.8328L23.3215 36.0865C22.7397 36.769 21.6961 36.669 21.2052 36.2096L19.353 34.5338C18.7441 33.9828 18.6971 33.0424 19.2481 32.4335ZM39.5015 59.6553H20.2286C19.4074 59.6553 18.7416 58.9896 18.7416 58.1684C18.7416 57.3471 19.4073 56.6814 20.2286 56.6814H39.5015C40.3227 56.6814 40.9884 57.3471 40.9884 58.1684C40.9884 58.9896 40.3227 59.6553 39.5015 59.6553ZM19.2481 49.4793C19.7991 48.8704 20.7393 48.8233 21.3483 49.3743L22.0797 50.0361L24.8087 46.9195C25.3496 46.3015 26.2891 46.2393 26.9069 46.7803C27.5248 47.3213 27.5871 48.2607 27.0461 48.8785L23.3215 53.1322C22.7397 53.8148 21.6961 53.7147 21.2052 53.2553L19.353 51.5796C18.7441 51.0285 18.6971 50.0883 19.2481 49.4793ZM39.5015 53.5758H31.1417C30.3205 53.5758 29.6548 52.9101 29.6548 52.0889C29.6548 51.2677 30.3205 50.602 31.1417 50.602H39.5015C40.3227 50.602 40.9884 51.2677 40.9884 52.0889C40.9884 52.9101 40.3227 53.5758 39.5015 53.5758ZM39.5015 42.7034H20.2286C19.4074 42.7034 18.7416 42.0377 18.7416 41.2165C18.7416 40.3953 19.4073 39.7295 20.2286 39.7295H39.5015C40.3227 39.7295 40.9884 40.3953 40.9884 41.2165C40.9884 42.0377 40.3227 42.7034 39.5015 42.7034ZM39.5015 36.5358H31.1417C30.3205 36.5358 29.6548 35.8701 29.6548 35.0488C29.6548 34.2277 30.3205 33.5619 31.1417 33.5619H39.5015C40.3227 33.5619 40.9884 34.2277 40.9884 35.0488C40.9884 35.87 40.3227 36.5358 39.5015 36.5358Z" fill="#008C8C"/>
</svg>
