<svg width="77" height="77" viewBox="0 0 77 77" fill="none" xmlns="http://www.w3.org/2000/svg">
<path d="M54.3359 44.3281C53.4954 44.3281 52.8125 45.011 52.8125 45.8516C52.8125 46.6921 53.4954 47.375 54.3359 47.375C55.1765 47.375 55.8594 46.6921 55.8594 45.8516C55.8594 45.011 55.1765 44.3281 54.3359 44.3281Z" fill="#008C8C"/>
<path d="M63.4766 23H28.3608V27.5703C28.3608 28.4124 27.6794 29.0938 26.8374 29.0938C25.9953 29.0938 25.3139 28.4124 25.3139 27.5703V23H14.5234C13.6814 23 13 23.6814 13 24.5234V33.6641C13 34.5061 13.6814 35.1875 14.5234 35.1875C17.0436 35.1875 19.0938 37.2376 19.0938 39.7578C19.0938 42.278 17.0436 44.3281 14.5234 44.3281C13.6814 44.3281 13 45.0095 13 45.8516V54.9922C13 55.8342 13.6814 56.5156 14.5234 56.5156H25.1875V51.9453C25.1875 51.1033 25.8689 50.4219 26.7109 50.4219C27.553 50.4219 28.2344 51.1033 28.2344 51.9453V56.5156H63.4766C64.3186 56.5156 65 55.8342 65 54.9922V24.5234C65 23.6814 64.3186 23 63.4766 23ZM28.2344 45.8516C28.2344 46.6936 27.553 47.375 26.7109 47.375C25.8689 47.375 25.1875 46.6936 25.1875 45.8516V42.8047C25.1875 41.9626 25.8689 41.2812 26.7109 41.2812C27.553 41.2812 28.2344 41.9626 28.2344 42.8047V45.8516ZM28.2344 36.7109C28.2344 37.553 27.553 38.2344 26.7109 38.2344C25.8689 38.2344 25.1875 37.553 25.1875 36.7109V33.6641C25.1875 32.822 25.8689 32.1406 26.7109 32.1406C27.553 32.1406 28.2344 32.822 28.2344 33.6641V36.7109ZM37.5781 33.6641C37.5781 31.1439 39.6283 29.0938 42.1484 29.0938C44.6686 29.0938 46.7188 31.1439 46.7188 33.6641C46.7188 36.1842 44.6686 38.2344 42.1484 38.2344C39.6283 38.2344 37.5781 36.1842 37.5781 33.6641ZM41.3034 50.1659C40.6028 49.6987 40.4137 48.7541 40.8809 48.0533L53.0684 29.7721C53.5341 29.0714 54.4788 28.8839 55.181 29.3496C55.8817 29.8168 56.0707 30.7614 55.6035 31.4622L43.416 49.7434C42.9565 50.4338 42.0153 50.6378 41.3034 50.1659ZM54.3359 50.4219C51.8158 50.4219 49.7656 48.3717 49.7656 45.8516C49.7656 43.3314 51.8158 41.2812 54.3359 41.2812C56.8561 41.2812 58.9062 43.3314 58.9062 45.8516C58.9062 48.3717 56.8561 50.4219 54.3359 50.4219Z" fill="#008C8C"/>
<path d="M42.1484 32.1406C41.3079 32.1406 40.625 32.8235 40.625 33.6641C40.625 34.5046 41.3079 35.1875 42.1484 35.1875C42.989 35.1875 43.6719 34.5046 43.6719 33.6641C43.6719 32.8235 42.989 32.1406 42.1484 32.1406Z" fill="#008C8C"/>
</svg>
