<svg width="77" height="77" viewBox="0 0 77 77" fill="none" xmlns="http://www.w3.org/2000/svg">
<g clip-path="url(#clip0)">
<path d="M55.04 50.2337L49.9425 56.8997C48.9225 58.2334 47.3394 59.0158 45.6604 59.0158H36.1953C35.451 59.0158 34.8476 58.4124 34.8476 57.6682C34.8476 56.9239 35.451 56.3205 36.1953 56.3205H44.3988C46.162 56.3205 47.6386 54.8775 47.6049 53.1146C47.5722 51.4062 46.1771 50.0314 44.4609 50.0314H35.0273C32.3188 47.4271 28.1391 47.1224 25.0814 49.3064L24.0664 50.0314V65.3049H33.0508H34.8476H47.5034C50.2548 65.3049 52.8173 63.9058 54.3051 61.5915L59.5645 53.4102C59.8514 52.9639 60.0038 52.4447 60.0038 51.9142C60.0039 49.2686 56.6469 48.1322 55.04 50.2337Z" fill="#008C8C"/>
<path d="M20.0195 47.3369H15.3477C14.6034 47.3369 14 47.9403 14 48.6846V66.6534C14 67.3976 14.6034 68.001 15.3477 68.001H20.0195C20.7638 68.001 21.3672 67.3976 21.3672 66.6534V48.6846C21.3672 47.9403 20.7638 47.3369 20.0195 47.3369Z" fill="#008C8C"/>
<path d="M37.8098 22.6328C37.5656 22.82 37.431 23.1035 37.3848 23.3493C37.3209 23.6884 37.4018 24.0035 37.591 24.1518C37.6576 24.204 37.731 24.2554 37.8098 24.3059V22.6328Z" fill="#008C8C"/>
<path d="M38.6602 36C44.1742 36 48.6602 31.514 48.6602 26C48.6602 20.486 44.1742 16 38.6602 16C33.1462 16 28.6602 20.486 28.6602 26C28.6602 31.514 33.1462 36 38.6602 36ZM35.6331 29.2695C35.8748 28.8999 36.3708 28.7959 36.7405 29.038C37.1726 29.3206 37.4434 29.4432 37.805 29.494V26.1155C37.294 25.8814 36.9121 25.656 36.5988 25.4102C35.9348 24.8894 35.6317 23.9861 35.8076 23.0524C35.9993 22.035 36.7076 21.2254 37.6558 20.9398C37.706 20.9247 37.7557 20.9109 37.805 20.8978V20.4C37.805 19.9582 38.1632 19.6 38.605 19.6C39.0468 19.6 39.405 19.9582 39.405 20.4V20.8102C40.1817 20.9446 40.7307 21.327 40.9966 21.6322C41.2868 21.9654 41.252 22.4707 40.9188 22.7609C40.5875 23.0495 40.0858 23.0167 39.7948 22.6885C39.7765 22.67 39.6494 22.5476 39.405 22.4574V25.0424C39.547 25.0951 39.6889 25.1462 39.8282 25.1955C41.2344 25.6926 42.0166 26.9944 41.7745 28.4348C41.5863 29.5544 40.7343 30.6898 39.405 31.027V31.6C39.405 32.0418 39.0468 32.4 38.605 32.4C38.1632 32.4 37.805 32.0418 37.805 31.6V31.1038C37.1591 31.048 36.6236 30.8735 35.8646 30.377C35.4948 30.135 35.3912 29.6393 35.6331 29.2695Z" fill="#008C8C"/>
<path d="M40.198 28.1695C40.2506 27.8568 40.2721 27.1116 39.4062 26.7471V29.3168C39.8562 29.059 40.1251 28.6031 40.198 28.1695Z" fill="#008C8C"/>
<path d="M46.7122 11.2384C49.3294 12.7494 51.5218 15.0058 53.0524 17.7637C54.0219 19.5152 54.7083 21.4092 55.0849 23.3756L51.2467 20.9875C50.796 20.7068 50.2031 20.845 49.9225 21.2961C49.6421 21.7469 49.7799 22.34 50.2311 22.6203L55.5416 25.9246C55.7786 26.2322 56.1775 26.367 56.5528 26.2662C56.9278 26.1653 57.2053 25.8488 57.2562 25.4636L60.2028 19.9483C60.4579 19.4825 60.287 18.8982 59.8214 18.6428C59.3558 18.3879 58.7709 18.5585 58.516 19.0241C58.5124 19.0303 58.5091 19.036 58.5062 19.0423L56.8064 22.2243C56.3677 20.339 55.6704 18.5233 54.7341 16.8298C53.0342 13.7678 50.5927 11.2583 47.6737 9.57307C43.0107 6.8809 37.6015 6.32145 32.4442 7.99853C27.8755 9.48424 23.8105 12.6874 21.5704 16.5674C21.3049 17.0272 21.4623 17.6152 21.9223 17.8808C22.3823 18.1464 22.9702 17.9887 23.2357 17.5289C25.2448 14.0491 28.9093 11.1698 33.0387 9.8274C37.6711 8.32155 42.527 8.82207 46.7122 11.2384Z" fill="#008C8C"/>
<path d="M54.5239 34.4823C54.0638 34.2167 53.4761 34.3741 53.2105 34.8342C51.2016 38.3137 47.5368 41.1932 43.4073 42.536C38.775 44.0418 33.9194 43.5408 29.7341 41.1244C27.1169 39.6134 24.9242 37.3576 23.3936 34.5997C22.4243 32.8479 21.7379 30.9539 21.3611 28.9877L25.1994 31.3758C25.6503 31.656 26.2433 31.5178 26.5237 31.067C26.8041 30.6162 26.6661 30.0234 26.2152 29.7426L20.9046 26.4385C20.6675 26.1309 20.2685 25.9963 19.8934 26.0968C19.5183 26.1978 19.241 26.514 19.1901 26.8992L16.2435 32.4145C15.9883 32.8805 16.159 33.4652 16.6248 33.7202C17.0902 33.9754 17.6751 33.8048 17.9301 33.339C17.9336 33.333 17.9369 33.3273 17.94 33.3208L19.6397 30.1387C20.0783 32.0244 20.7759 33.8395 21.7119 35.5335C23.4117 38.5958 25.8533 41.105 28.7723 42.7903C33.4353 45.4825 38.8444 46.0422 44.0017 44.3651C48.5706 42.8791 52.6356 39.6759 54.8758 35.7957C55.1414 35.3356 54.9839 34.7479 54.5239 34.4823Z" fill="#008C8C"/>
</g>
<defs>
<clipPath id="clip0">
<rect width="53" height="68" fill="white" transform="translate(12)"/>
</clipPath>
</defs>
</svg>
