<svg width="77" height="77" viewBox="0 0 77 77" fill="none" xmlns="http://www.w3.org/2000/svg">
<g clip-path="url(#clip0)">
<path d="M58.846 15H19.1539C16.8633 15 15 16.8633 15 19.1539V23.7693H63V19.1539C63 16.8633 61.1368 15 58.846 15Z" fill="#008C8C"/>
<path d="M15 26.9999C15 29.2903 16.8633 31.1539 19.1539 31.1539H21V26.5386H15V26.9999Z" fill="#008C8C"/>
<path d="M57 31.1539H58.846C61.1368 31.1539 63 29.2903 63 26.9999V26.5386H57V31.1539Z" fill="#008C8C"/>
<path d="M23.7656 26.5386V61.6153C23.7656 62.3796 24.386 62.9999 25.1502 62.9999H52.8424C53.6067 62.9999 54.227 62.3796 54.227 61.6153V26.5386H23.7656ZM36.6885 56.9999C36.6885 57.7646 36.0688 58.3846 35.3042 58.3846C34.5392 58.3846 33.9196 57.7646 33.9196 56.9999V54.2307C33.9196 53.4671 33.2981 52.8461 32.5349 52.8461H29.7657C29.001 52.8461 28.381 52.226 28.381 51.4614C28.381 50.6968 29.001 50.0767 29.7657 50.0767H32.5349C34.8252 50.0767 36.6885 51.9404 36.6885 54.2307V56.9999ZM40.381 36.6921V42.6921C40.381 43.4572 39.761 44.0767 38.9964 44.0767H37.1502C35.016 44.0767 33.253 42.4585 33.0227 40.3846H30.6885C29.9238 40.3846 29.3042 39.7646 29.3042 38.9999C29.3042 38.2353 29.9238 37.6153 30.6885 37.6153H32.9964V35.3078C32.9964 34.5428 33.6163 33.9231 34.381 33.9231C35.1456 33.9231 35.7657 34.5428 35.7657 35.3078V39.9231C35.7657 40.6863 36.3868 41.3078 37.1502 41.3078H37.6117V35.3078C37.6117 34.5428 38.2317 33.9231 38.9964 33.9231H40.8424C42.9767 33.9231 44.7396 35.5415 44.97 37.6153H47.3042C48.0688 37.6153 48.6885 38.2353 48.6885 38.9999C48.6885 39.7646 48.0688 40.3846 47.3042 40.3846H44.9964V42.6921C44.9964 43.4572 44.3763 44.0767 43.6117 44.0767C42.8471 44.0767 42.227 43.4572 42.227 42.6921V38.0767C42.227 37.3135 41.606 36.6921 40.8424 36.6921H40.381ZM48.227 52.8461H45.4578C44.6946 52.8461 44.0732 53.4671 44.0732 54.2307V56.9999C44.0732 57.7646 43.4535 58.3846 42.6885 58.3846C41.9238 58.3846 41.3042 57.7646 41.3042 56.9999V54.2307C41.3042 51.9404 43.1675 50.0767 45.4578 50.0767H48.227C48.9917 50.0767 49.6117 50.6968 49.6117 51.4614C49.6117 52.226 48.9917 52.8461 48.227 52.8461Z" fill="#008C8C"/>
</g>
<defs>
<clipPath id="clip0">
<rect width="48" height="48" fill="white" transform="translate(15 15)"/>
</clipPath>
</defs>
</svg>
