<svg width="77" height="77" viewBox="0 0 77 77" fill="none" xmlns="http://www.w3.org/2000/svg">
<g clip-path="url(#clip0)">
<path d="M58.6045 44.6888L53.0637 51.9344C51.955 53.3841 50.2342 54.2345 48.4092 54.2345H38.1211C37.3122 54.2345 36.6563 53.5787 36.6563 52.7698C36.6563 51.9607 37.3122 51.3049 38.1211 51.3049H47.038C48.9546 51.3049 50.5596 49.7364 50.5229 47.8202C50.4874 45.9632 48.971 44.4689 47.1055 44.4689H36.8516C33.9075 41.6381 29.3643 41.3069 26.0409 43.6808L24.9375 44.4689V61.0705H34.7032H36.6563H50.4126C53.4032 61.0705 56.1886 59.5498 57.8058 57.0342L63.5225 48.1415C63.8342 47.6564 64 47.092 64 46.5154C64.0001 43.6398 60.3512 42.4045 58.6045 44.6888Z" fill="#008C8C"/>
<path d="M20.543 41.5391H15.4648C14.6559 41.5391 14 42.1949 14 43.004V62.5353C14 63.3443 14.6559 64 15.4648 64H20.543C21.352 64 22.0078 63.3443 22.0078 62.5353V43.004C22.0078 42.1949 21.352 41.5391 20.543 41.5391Z" fill="#008C8C"/>
<path d="M41.9591 22.0959C41.6611 22.3245 41.4968 22.6705 41.4404 22.9706C41.3624 23.3845 41.4611 23.7691 41.692 23.9502C41.7735 24.0139 41.863 24.0766 41.9591 24.1382V22.0959Z" fill="#008C8C"/>
<path d="M43.0039 38.4141C49.7349 38.4141 55.211 32.938 55.211 26.2071C55.211 19.4761 49.7349 14 43.0039 14C36.273 14 30.7969 19.4761 30.7969 26.2071C30.7969 32.938 36.273 38.4141 43.0039 38.4141ZM39.3087 30.1982C39.6038 29.7471 40.2093 29.6201 40.6606 29.9155C41.1881 30.2605 41.5186 30.4102 41.96 30.4722V26.348C41.3363 26.0623 40.87 25.7872 40.4875 25.4871C39.6771 24.8514 39.3071 23.7487 39.5219 22.6089C39.7558 21.3669 40.6204 20.3787 41.7779 20.0301C41.8393 20.0116 41.8998 19.9947 41.96 19.9788V19.3711C41.96 18.8318 42.3973 18.3945 42.9365 18.3945C43.4758 18.3945 43.9132 18.8318 43.9132 19.3711V19.8718C44.8613 20.036 45.5314 20.5028 45.856 20.8753C46.2104 21.282 46.1677 21.8988 45.7611 22.253C45.3567 22.6054 44.7442 22.5653 44.3889 22.1647C44.3667 22.1421 44.2114 21.9927 43.9132 21.8826V25.0382C44.0864 25.1025 44.2597 25.1649 44.4297 25.225C46.1463 25.8318 47.1011 27.421 46.8057 29.1792C46.5759 30.546 45.5358 31.932 43.9132 32.3436V33.043C43.9132 33.5823 43.4758 34.0196 42.9365 34.0196C42.3973 34.0196 41.96 33.5823 41.96 33.043V32.4374C41.1715 32.3692 40.518 32.1562 39.5913 31.55C39.14 31.2548 39.0135 30.6496 39.3087 30.1982Z" fill="#008C8C"/>
<path d="M44.8805 28.8554C44.9447 28.4737 44.9709 27.564 43.9141 27.1189V30.2557C44.4634 29.9411 44.7916 29.3847 44.8805 28.8554Z" fill="#008C8C"/>
</g>
<defs>
<clipPath id="clip0">
<rect width="50" height="50" fill="white" transform="translate(14 14)"/>
</clipPath>
</defs>
</svg>
