<svg width="65" height="65" viewBox="0 0 65 65" fill="none" xmlns="http://www.w3.org/2000/svg">
<g filter="url(#filter0_d)">
<circle cx="32.5" cy="32.5" r="25.5" fill="white"/>
</g>
<circle cx="32.5" cy="32.5" r="22.5" fill="#008C8C"/>
<path d="M26 30.02V31.15H23.09V32.94H25.32V34.05H23.09V37H21.69V30.02H26ZM29.4527 37.09C28.9194 37.09 28.4394 36.9733 28.0127 36.74C27.5861 36.5 27.2494 36.1633 27.0027 35.73C26.7627 35.2967 26.6427 34.7967 26.6427 34.23C26.6427 33.6633 26.7661 33.1633 27.0127 32.73C27.2661 32.2967 27.6094 31.9633 28.0427 31.73C28.4761 31.49 28.9594 31.37 29.4927 31.37C30.0261 31.37 30.5094 31.49 30.9427 31.73C31.3761 31.9633 31.7161 32.2967 31.9627 32.73C32.2161 33.1633 32.3427 33.6633 32.3427 34.23C32.3427 34.7967 32.2127 35.2967 31.9527 35.73C31.6994 36.1633 31.3527 36.5 30.9127 36.74C30.4794 36.9733 29.9927 37.09 29.4527 37.09ZM29.4527 35.87C29.7061 35.87 29.9427 35.81 30.1627 35.69C30.3894 35.5633 30.5694 35.3767 30.7027 35.13C30.8361 34.8833 30.9027 34.5833 30.9027 34.23C30.9027 33.7033 30.7627 33.3 30.4827 33.02C30.2094 32.7333 29.8727 32.59 29.4727 32.59C29.0727 32.59 28.7361 32.7333 28.4627 33.02C28.1961 33.3 28.0627 33.7033 28.0627 34.23C28.0627 34.7567 28.1927 35.1633 28.4527 35.45C28.7194 35.73 29.0527 35.87 29.4527 35.87ZM34.9997 32.61V35.29C34.9997 35.4767 35.043 35.6133 35.1297 35.7C35.223 35.78 35.3764 35.82 35.5897 35.82H36.2397V37H35.3597C34.1797 37 33.5897 36.4267 33.5897 35.28V32.61H32.9297V31.46H33.5897V30.09H34.9997V31.46H36.2397V32.61H34.9997ZM39.7066 37.09C39.1733 37.09 38.6933 36.9733 38.2666 36.74C37.84 36.5 37.5033 36.1633 37.2566 35.73C37.0166 35.2967 36.8966 34.7967 36.8966 34.23C36.8966 33.6633 37.02 33.1633 37.2666 32.73C37.52 32.2967 37.8633 31.9633 38.2966 31.73C38.73 31.49 39.2133 31.37 39.7466 31.37C40.28 31.37 40.7633 31.49 41.1966 31.73C41.63 31.9633 41.97 32.2967 42.2166 32.73C42.47 33.1633 42.5966 33.6633 42.5966 34.23C42.5966 34.7967 42.4666 35.2967 42.2066 35.73C41.9533 36.1633 41.6066 36.5 41.1666 36.74C40.7333 36.9733 40.2466 37.09 39.7066 37.09ZM39.7066 35.87C39.96 35.87 40.1966 35.81 40.4166 35.69C40.6433 35.5633 40.8233 35.3767 40.9566 35.13C41.09 34.8833 41.1566 34.5833 41.1566 34.23C41.1566 33.7033 41.0166 33.3 40.7366 33.02C40.4633 32.7333 40.1266 32.59 39.7266 32.59C39.3266 32.59 38.99 32.7333 38.7166 33.02C38.45 33.3 38.3166 33.7033 38.3166 34.23C38.3166 34.7567 38.4466 35.1633 38.7066 35.45C38.9733 35.73 39.3066 35.87 39.7066 35.87Z" fill="white"/>
<defs>
<filter id="filter0_d" x="0" y="0" width="65" height="65" filterUnits="userSpaceOnUse" color-interpolation-filters="sRGB">
<feFlood flood-opacity="0" result="BackgroundImageFix"/>
<feColorMatrix in="SourceAlpha" type="matrix" values="0 0 0 0 0 0 0 0 0 0 0 0 0 0 0 0 0 0 127 0"/>
<feMorphology radius="2" operator="dilate" in="SourceAlpha" result="effect1_dropShadow"/>
<feOffset/>
<feGaussianBlur stdDeviation="2.5"/>
<feColorMatrix type="matrix" values="0 0 0 0 0 0 0 0 0 0 0 0 0 0 0 0 0 0 0.1 0"/>
<feBlend mode="normal" in2="BackgroundImageFix" result="effect1_dropShadow"/>
<feBlend mode="normal" in="SourceGraphic" in2="effect1_dropShadow" result="shape"/>
</filter>
</defs>
</svg>
